
<svg width="62px" height="32px" viewBox="0 0 62 32" version="1.1" xmlns="http://www.w3.org/2000/svg" xmlns:xlink="http://www.w3.org/1999/xlink">
    <!-- Generator: Sketch 50.2 (55047) - http://www.bohemiancoding.com/sketch -->
    <desc>Created with Sketch.</desc>
    <defs></defs>
    <g id="Page-1" stroke="none" stroke-width="1" fill="none" fill-rule="evenodd">
        <g id="table_open_Q1-Copy" transform="translate(-824.000000, -336.000000)" fill="#000000">
            <g id="Group-Copy" transform="translate(807.000000, 280.000000)">
                <g id="Group" transform="translate(17.000000, 56.000000)">
                    <text id="Увеличить" font-family="Roboto-Bold, Roboto" font-size="10" font-weight="bold" letter-spacing="0.400000006">
                        <tspan x="0.307910129" y="31">УВЕЛИЧИТЬ</tspan>
                    </text>
                    <path d="M30,6.949 L33,6.949 L33,8.949 L30,8.949 L30,11.949 L28,11.949 L28,8.949 L25,8.949 L25,6.949 L28,6.949 L28,3.949 L30,3.949 L30,6.949 Z M41,18.535 L39.586,19.949 L35.343,15.707 L36.757,14.292 L41,18.535 Z M29,14 C25.691,14 23,11.308 23,8 C23,4.691 25.691,2 29,2 C32.309,2 35,4.691 35,8 C35,11.308 32.309,14 29,14 Z M29,0 C24.582,0 21,3.581 21,8 C21,12.418 24.582,16 29,16 C33.418,16 37,12.418 37,8 C37,3.581 33.418,0 29,0 Z" id="Fill-1"></path>
                </g>
            </g>
        </g>
    </g>
</svg>