
<svg width="82px" height="63px" viewBox="0 0 82 63" version="1.1" xmlns="http://www.w3.org/2000/svg" xmlns:xlink="http://www.w3.org/1999/xlink">
    <!-- Generator: Sketch 50.2 (55047) - http://www.bohemiancoding.com/sketch -->
    <desc>Created with Sketch.</desc>
    <defs></defs>
    <g id="Page-1" stroke="none" stroke-width="1" fill="none" fill-rule="evenodd">
        <g id="Podval" transform="translate(-128.000000, -511.000000)" fill="#FFFFFF" fill-rule="nonzero">
            <g id="LP_logo" transform="translate(128.000000, 511.000000)">
                <path d="M80.2852547,49.3090186 C80.6369973,48.3169761 80.1313673,47.3925729 79.4718499,47.0994695 C79.3399464,46.7612732 78.6364611,46.3103448 78.2407507,46.0172414 C77.6691689,45.6114058 77.4273458,44.3262599 75.9764075,44.3262599 C75.2729223,44.3262599 75.1849866,44.438992 74.6573727,44.438992 C73.9758713,44.438992 72.4589812,41.6432361 72.0632708,39.704244 C71.4037534,36.4801061 70.480429,33.3236074 69.689008,31.5875332 C70.8981233,30.1671088 73.2723861,26.9880637 73.2723861,23.8992042 C73.2723861,21.035809 72.6128686,19.3448276 71.8214477,17.969496 C71.9313673,17.9018568 72.2171582,17.7440318 72.4809651,17.7440318 C72.9206434,17.7440318 73.5801609,18.0596817 74.3276139,18.0596817 C75.2069705,18.0596817 75.9104558,17.6087533 75.9104558,16.7519894 C75.9104558,16.301061 75.7785523,16.030504 75.5587131,15.9403183 C75.8884718,14.7453581 75.3608579,13.8209549 74.8772118,13.6180371 C74.7892761,14.2267905 74.569437,14.6777188 74.3276139,14.9933687 C73.7120643,14.5424403 73.5142091,14.2944297 73.4482574,14.0238727 C73.6680965,14.1591512 74.063807,14.2267905 74.2836461,14.204244 C74.063807,12.9867374 74.0857909,12.1976127 74.1737265,11.4986737 L74.2836461,11.3183024 C74.3935657,11.8143236 74.7892761,12.1750663 74.9871314,12.1750663 C75.1410188,12.1750663 75.1630027,12.1074271 75.2509383,12.1074271 C75.3168901,12.1074271 75.4268097,12.4456233 75.5806971,12.4456233 C75.7126005,12.4456233 75.844504,12.4005305 75.9983914,12.2877984 C75.8225201,12.6259947 75.8005362,13.0994695 75.9324397,13.505305 C76.5260054,13.5729443 77.2075067,13.1896552 77.8230563,12.3103448 C78.9882038,12.6034483 79.6257373,11.4986737 80.3292225,10.168435 C81.0107239,9.85278515 81.5603217,9.35676393 81.5603217,8.54509284 C81.5603217,7.73342175 80.7029491,7.19230769 80.5930295,6.94429708 C80.1093834,5.95225464 79.4058981,5.433687 78.3726542,5.14058355 C77.910992,4.5994695 77.2514745,4.17108753 76.9217158,4.03580902 C76.7238606,3.47214854 76.1962466,2.9535809 75.5806971,2.93103448 C73.3823056,1.48806366 70.6782842,1.17241379 70.6782842,1.17241379 C70.216622,0.676392573 69.3372654,0.270557029 68.5458445,0.270557029 C61.4670241,0.270557029 56.7404826,8.29708223 50.6509383,12.0848806 C47.2214477,14.2267905 44.9131367,14.362069 37.9882038,14.362069 C32.6680965,14.362069 26.9522788,13.2572944 24.2042895,13.2572944 C19.1919571,13.2572944 17.4112601,15.5795756 14.9050938,15.5795756 C11.6734584,15.5795756 2.63806971,11.2281167 2.63806971,5.70424403 C2.63806971,4.10344828 3.20965147,2.29973475 5.16621984,2.29973475 C6.72707775,2.29973475 7.29865952,3.31432361 7.29865952,4.03580902 C7.29865952,4.75729443 7.14477212,5.16312997 7.14477212,5.50132626 C7.14477212,6.31299735 7.51849866,6.83156499 8.06809651,7.37267905 C8.39785523,7.71087533 8.70563003,8.90583554 9.23324397,8.90583554 C10.0686327,8.90583554 10.9040214,6.80901857 10.9040214,5.81697613 C10.9040214,4.98275862 9.95871314,4.39655172 9.84879357,3.9005305 C9.47506702,2.34482759 8.74959786,0 5.16621984,0 C2.50616622,0 0,1.75862069 0,5.70424403 C0,11.2732095 6.30938338,16.9774536 13.5201072,19.2771883 C14.0257373,19.4575597 14.597319,19.6153846 15.0369973,19.6830239 C15.1469169,19.7055703 15.1908847,19.7506631 15.124933,19.9084881 C14.9050938,20.5623342 14.9050938,20.9681698 14.9050938,21.306366 C13.8718499,22.005305 12.7067024,24.0344828 12.7067024,26.9204244 C12.7067024,29.1525199 12.4648794,31.4297082 11.4975871,32.4668435 C10.8380697,33.1657825 9.34316354,33.5941645 8.06809651,34.428382 C6.46327078,35.4429708 5.82573727,36.5702918 5.82573727,38.9376658 C5.82573727,43.5371353 5.16621984,44.2586207 5.16621984,46.5809019 C5.16621984,47.7307692 5.29812332,48.3846154 5.80375335,49.331565 C5.80375335,49.331565 5.80375335,49.3541114 5.82573727,49.3766578 L3.27560322,49.3766578 L3.27560322,51 L82,51 L82,49.3090186 L80.2852547,49.3090186 Z M49.6396783,49.3090186 C49.3758713,48.9933687 49.2439678,48.2944297 49.5957105,47.7307692 C49.3319035,47.4602122 49.1560322,47.0769231 49.1560322,46.693634 C49.1560322,46.4681698 49.2,46.2201592 49.3538874,45.994695 C48.936193,46.1299735 48.7823056,46.4681698 48.7823056,46.8965517 C48.7823056,47.1896552 48.9142091,47.5278515 49.1120643,47.7307692 C48.7603217,48.1591512 48.69437,48.9708223 48.8042895,49.3090186 L45.616622,49.3090186 C45.3308311,49.0384615 45.1769437,48.6100796 45.1769437,48.204244 C45.1769437,47.7533156 45.2648794,47.4376658 45.3747989,47.234748 C45.0450402,46.7161804 44.9351206,45.9721485 45.2209115,45.3408488 C45.3747989,45.0026525 46.1442359,45.0702918 46.1442359,44.3037135 C46.1442359,43.9204244 45.9243968,43.6047745 45.4407507,43.6047745 C45.1549598,43.6047745 44.7812332,43.8753316 44.7812332,44.3938992 C44.6713137,44.2135279 44.583378,43.8753316 44.583378,43.6498674 C44.583378,41.9814324 45.616622,41.0344828 47.3313673,38.734748 C48.5404826,37.1114058 49.7276139,34.0901857 50.8268097,32.8501326 C51.2225201,32.8050398 51.7281501,32.7824934 52.3217158,32.7824934 C52.519571,32.7824934 52.6954424,32.7824934 52.8713137,32.7824934 C52.2557641,34.3832891 51.2005362,36.9310345 50.7828418,37.9005305 C50.3211796,39.005305 50.4310992,40.2002653 50.7608579,41.0795756 C52.4975871,39.8846154 56.7624665,36.2546419 58.8509383,33.9098143 C58.9828418,34.0225464 59.0927614,34.1127321 59.1806971,34.2029178 C56.3447721,38.1485411 50.6289544,42.4549072 50.0134048,43.0862069 C49.3978552,43.7175066 48.8922252,44.3262599 49.0461126,45.137931 C50.4310992,44.4840849 51.7941019,45.2055703 52.013941,46.3328912 C52.0579088,46.5583554 52.0359249,46.9190981 52.3436997,46.9867374 C52.7394102,47.0543767 53.047185,47.1671088 53.2450402,47.4827586 C53.1351206,47.5503979 52.8713137,47.7307692 52.7613941,47.8885942 C52.5635389,47.7307692 52.3876676,47.66313 52.1898123,47.6405836 C52.0579088,47.2572944 51.7281501,46.9190981 51.3544236,46.7838196 C51.2664879,46.3554377 50.8927614,45.7466844 50.3871314,45.7466844 C50.1672922,45.7466844 49.9914209,45.8594164 49.9914209,45.8594164 C50.4970509,45.8594164 50.7828418,46.4005305 50.8487936,46.964191 C51.0906166,47.0543767 51.5962466,47.3925729 51.5962466,47.66313 C51.5962466,47.8209549 51.508311,47.933687 51.3324397,48.0013263 C51.3764075,48.2944297 51.4643432,48.5649867 51.3544236,48.8580902 C51.3104558,49.0384615 51.2005362,49.2188329 51.0686327,49.331565 L49.6396783,49.331565 L49.6396783,49.3090186 Z M39.5270777,48.7002653 C39.6589812,48.8129973 39.724933,48.9482759 39.7469169,49.1061008 C39.6589812,49.2188329 39.4171582,49.2413793 39.197319,49.1962865 C39.3072386,49.0835544 39.4831099,48.8806366 39.5270777,48.7002653 Z M39.4391421,47.5503979 C39.4391421,47.5503979 39.724933,47.234748 39.7689008,47.1445623 C40.0986595,47.4151194 40.2965147,47.7984085 40.2965147,48.2267905 C40.2965147,48.362069 40.230563,48.4973475 40.1646113,48.5649867 C40.0327078,48.2718833 39.8348525,48.0238727 39.5930295,47.8885942 C39.5930295,47.7082228 39.4391421,47.5503979 39.4391421,47.5503979 Z M38.9335121,48.8129973 C38.8895442,48.5649867 38.8235925,48.2267905 38.7576408,48.0464191 C39.0434316,47.7984085 39.2852547,47.8660477 39.2852547,48.1366048 C39.2852547,48.4071618 39.1753351,48.6777188 38.9335121,48.8129973 Z M40.736193,49.3090186 C40.736193,49.0159151 41.0659517,48.7679045 41.0659517,48.1591512 C41.0659517,47.0092838 39.8348525,46.1074271 39.0654155,45.7692308 C38.5817694,44.3488064 37.1308311,43.8076923 35.5919571,44.1909814 C34.5367292,43.0185676 33.5914209,40.6511936 33.3715818,38.4867374 C33.8552279,37.2692308 34.1190349,35.938992 34.2289544,34.5185676 C34.5147453,34 34.7565684,33.2559682 34.6466488,32.5795756 C36.3174263,33.2108753 39.5710456,33.9098143 43.3962466,33.9098143 C45.9024129,33.9098143 47.9908847,33.4588859 49.4857909,32.9403183 L49.4857909,32.9628647 C48.5404826,34.0676393 47.5292225,36.8859416 46.1442359,38.6445623 C44.8032172,40.3129973 43.6160858,41.7785146 43.6160858,43.5371353 C43.6160858,44.5742706 44.0997319,44.9801061 44.0997319,45.4986737 C44.0997319,45.6790451 44.0337802,45.8594164 44.0337802,46.3554377 C44.0337802,46.7387268 44.1217158,47.0318302 44.3635389,47.4151194 C44.2316354,47.6856764 44.1436997,48.0464191 44.1436997,48.3846154 C44.1436997,48.7453581 44.2756032,49.1511936 44.341555,49.331565 L40.736193,49.3090186 Z M32.6900804,37.8554377 C32.3823056,37.4721485 31.7227882,37.0888594 31.0632708,36.5477454 C30.3158177,35.938992 29.722252,35.0371353 29.722252,33.9549072 C29.722252,33.1206897 30.3597855,32.3992042 31.0852547,32.3992042 C32.1184987,32.3992042 32.7340483,33.1657825 33.1957105,33.8872679 C33.3276139,34.1127321 33.3935657,34.3832891 33.3935657,34.6763926 C33.3935657,35.0371353 33.0418231,36.9310345 32.6900804,37.8554377 Z M45.089008,44.3037135 C45.089008,44.1007958 45.2209115,43.9429708 45.3967828,43.9429708 C45.6386059,43.9429708 45.7045576,44.1233422 45.7045576,44.3037135 C45.7045576,44.5517241 45.4847185,44.7095491 45.3747989,44.7095491 C45.1989276,44.6870027 45.089008,44.5742706 45.089008,44.3037135 Z M45.089008,31.1816976 C44.1876676,31.2267905 43.813941,31.1366048 43.4402145,30.7533156 C43.3522788,30.66313 43.3742627,30.5729443 43.6600536,30.4376658 C43.9458445,30.6405836 44.6273458,30.8435013 45.1329759,30.933687 C45.0670241,31.0464191 45.0450402,31.1366048 45.089008,31.1816976 Z M42.9126005,30.6405836 C42.4509383,30.5954907 41.2418231,30.1220159 40.8900804,29.6710875 C40.8900804,29.6710875 41.1538874,29.7161804 41.4176944,29.6034483 C41.769437,29.8289125 42.6707775,30.1671088 43.1324397,30.2572944 C42.9126005,30.3925729 42.8686327,30.4602122 42.9126005,30.6405836 Z M38.1640751,26.3793103 C38.3619303,26.7175066 38.7576408,27.168435 39.1093834,27.3713528 C38.8455764,27.3488064 38.5597855,27.3488064 38.3179625,27.3938992 C37.9662198,27.1007958 37.416622,26.5371353 37.1747989,26.2440318 C37.1308311,26.198939 37.1747989,26.1763926 37.2407507,26.1538462 C37.5705094,26.1538462 37.922252,26.2214854 38.1640751,26.3793103 Z M37.3726542,25.2745358 C37.6144772,25.2745358 38.0541555,25.3421751 38.3179625,25.4098143 L38.5597855,25.7480106 C38.4058981,25.770557 38.2080429,25.8156499 38.186059,25.928382 C38.0101877,25.8381963 37.8123324,25.7931034 37.6364611,25.770557 C37.5485255,25.6803714 37.416622,25.4774536 37.3506702,25.3421751 C37.3067024,25.2970822 37.3286863,25.2745358 37.3726542,25.2745358 Z M39.8348525,26.2665782 C40.1646113,26.6498674 40.5823056,27.0106101 41.0439678,27.3037135 C40.8021448,27.2811671 40.1865952,27.3713528 39.966756,27.4615385 C39.5930295,27.3262599 38.6697051,26.4920424 38.5817694,26.2440318 C38.5597855,26.198939 38.5817694,26.1763926 38.6037534,26.1538462 C38.8016086,26.0185676 39.4831099,26.1312997 39.8348525,26.2665782 Z M38.7796247,25.1392573 C39.0873995,25.2068966 39.5930295,25.4323607 39.8568365,25.6578249 C39.7689008,25.7029178 39.724933,25.7931034 39.724933,25.8607427 C39.5270777,25.7480106 39.1313673,25.7029178 38.9994638,25.7029178 C38.8675603,25.5225464 38.7576408,25.3196286 38.7136729,25.229443 C38.6697051,25.1392573 38.691689,25.1167109 38.7796247,25.1392573 Z M43.044504,27.9350133 C43.1324397,28.0026525 43.3522788,28.1604775 43.5941019,28.2732095 C43.5061662,28.3183024 43.4182306,28.3633952 43.3742627,28.4310345 C42.9565684,28.1830239 42.3190349,27.867374 41.8793566,27.5517241 C41.8353887,27.5291777 41.8353887,27.4840849 41.8793566,27.4840849 C42.5168901,27.2811671 43.2643432,27.1909814 43.7479893,27.3262599 C43.550134,27.4164456 43.1983914,27.6193634 43.044504,27.7771883 C42.9785523,27.8222812 43.0005362,27.9124668 43.044504,27.9350133 Z M42.6048257,28.5212202 L42.6048257,28.566313 C42.3410188,28.6339523 41.9892761,28.7015915 41.7034853,28.7241379 C41.1978552,28.5888594 40.6042895,28.1604775 40.3624665,27.9124668 C40.3404826,27.867374 40.3624665,27.8448276 40.3844504,27.8222812 C40.4723861,27.7997347 40.9340483,27.6870027 41.3077748,27.7095491 C41.7034853,28.0251989 42.1651475,28.295756 42.6048257,28.5212202 Z M41.5935657,27.0782493 C41.3517426,26.9429708 40.7801609,26.5822281 40.4284182,26.1538462 C40.3844504,26.0862069 40.4064343,26.0636605 40.4723861,26.0636605 C41.3737265,26.0636605 42.3410188,26.4920424 43.044504,26.8527851 C42.6707775,26.8076923 41.9892761,26.897878 41.5935657,27.0782493 Z M38.4718499,27.8899204 C38.7136729,27.7546419 39.6369973,27.867374 39.6369973,27.867374 C40.0107239,28.3859416 40.5823056,28.7466844 41.0219839,28.9270557 C40.8461126,28.994695 40.8680965,29.1525199 40.9780161,29.265252 C40.0107239,29.1525199 38.8016086,28.3633952 38.449866,27.9350133 C38.449866,27.9124668 38.449866,27.9124668 38.4718499,27.8899204 Z M41.769437,29.265252 C41.7254692,29.2201592 41.769437,29.1976127 41.769437,29.1976127 C41.769437,29.1976127 43.0005362,28.9496021 43.1544236,28.8819629 C43.3522788,29.0172414 43.9018767,29.265252 44.341555,29.3103448 C43.7260054,29.535809 43.3742627,29.8965517 43.3742627,29.8965517 C42.6927614,29.6710875 42.2530831,29.535809 41.769437,29.265252 Z M46.4300268,28.0026525 C46.2321716,28.0702918 45.5946381,28.3633952 45.3747989,28.4986737 C44.7152815,28.3183024 44.2316354,28.137931 43.813941,27.9124668 C43.7479893,27.8899204 43.7479893,27.8222812 43.813941,27.7997347 C44.583378,27.2811671 45.7924933,27.3713528 46.386059,27.6644562 C46.3420912,27.7771883 46.3201072,27.8899204 46.4300268,28.0026525 Z M53.8386059,13.0543767 L53.7286863,13.0769231 C53.4428954,13.0994695 53.1790885,13.1445623 52.9372654,13.1896552 L52.783378,13.2122016 C52.8273458,13.0318302 52.8932976,12.806366 53.047185,12.5809019 C53.2450402,12.5132626 53.552815,12.4681698 53.816622,12.4005305 C53.7726542,12.4907162 53.7067024,12.964191 53.8386059,13.0543767 Z M54.1463807,13.66313 C57.2680965,13.66313 60.8734584,18.2400531 61.9726542,19.7732095 L61.4010724,20.0888594 C60.2798928,18.5782493 56.89437,14.3169761 54.1463807,14.3169761 C51.9040214,14.3169761 51.1126005,15.7148541 51.1126005,16.9098143 L51.1126005,16.9323607 C51.1126005,18.2175066 52.4096515,21.8474801 58.169437,21.8474801 C59.4225201,21.8474801 60.0160858,21.5543767 62.016622,20.4721485 C63.4455764,19.6830239 64.0171582,19.5026525 65.1383378,19.5026525 C67.7983914,19.5026525 70.1726542,23.1100796 70.1726542,25.9734748 C70.1726542,27.5291777 69.6450402,28.8594164 68.7217158,29.7387268 C67.908311,30.505305 66.8091153,30.8660477 65.5780161,30.7533156 C63.9072386,30.5954907 62.9839142,30.9787798 62.1045576,31.3395225 C61.4230563,31.6100796 60.719571,31.903183 59.7742627,31.903183 C58.5211796,31.903183 57.1581769,31.1140584 56.1029491,29.7838196 C55.0037534,28.4084881 54.3662198,26.5822281 54.3662198,24.8236074 C54.3662198,24.7785146 54.3662198,24.7334218 54.3662198,24.6883289 C54.3882038,23.9893899 54.586059,23.2002653 54.7839142,22.6140584 L55.3994638,22.7718833 C55.2235925,23.3129973 55.0257373,24.0570292 55.0037534,24.7108753 C55.0037534,24.7559682 55.0037534,24.801061 55.0037534,24.8461538 C55.0037534,26.469496 55.5753351,28.1153846 56.6085791,29.3779841 C57.5538874,30.5503979 58.7410188,31.2493369 59.7962466,31.2493369 C60.6316354,31.2493369 61.2252011,31.0013263 61.8847185,30.7307692 C62.786059,30.3474801 63.8193029,29.9416446 65.6439678,30.0994695 C66.6991957,30.1896552 67.6005362,29.8965517 68.2820375,29.265252 C69.0734584,28.5212202 69.5351206,27.3262599 69.5351206,25.9734748 C69.5351206,25.9734748 69.5351206,25.9734748 69.5351206,25.9509284 C69.5351206,23.4257294 67.402681,20.1339523 65.1383378,20.1339523 C63.7753351,20.1339523 62.786059,20.6976127 61.7308311,21.2838196 C60.6975871,21.8700265 59.5983914,22.4787798 58.1914209,22.4787798 C55.6412869,22.4787798 53.4428954,21.734748 52.0579088,20.3143236 C50.8927614,19.1419098 50.4970509,17.7440318 50.4970509,16.9098143 C50.475067,15.2864721 51.6182306,13.66313 54.1463807,13.66313 Z M55.0037534,12.6710875 C55.0037534,12.6710875 54.6520107,12.7612732 54.4321716,12.806366 C54.3442359,12.8289125 54.3002681,12.7838196 54.3002681,12.7612732 C54.2343164,12.5583554 54.2343164,12.3554377 54.2563003,12.1750663 C54.6080429,12.1074271 55.1576408,11.5888594 55.1576408,11.5888594 C55.1576408,11.5888594 54.9378016,12.0848806 55.0037534,12.6710875 Z M56.4327078,12.8514589 C56.4327078,12.8514589 56.366756,13.2798408 56.4986595,13.3249337 C56.6525469,13.3925729 57.0042895,13.2798408 57.0042895,13.2798408 C57.0482574,13.4602122 56.9603217,13.7533156 56.89437,13.9111406 C56.89437,13.9111406 56.89437,13.9111406 56.89437,13.9111406 C56.4327078,13.6405836 55.9490617,13.4151194 55.4654155,13.2798408 C55.9930295,13.1671088 56.4327078,12.8514589 56.4327078,12.8514589 Z M55.5533512,12.6259947 C55.5533512,12.2877984 55.597319,11.8143236 55.7731903,11.3859416 C55.9930295,11.295756 56.3447721,11.137931 56.5865952,11.0026525 C56.6965147,11.2055703 56.9383378,11.2732095 56.9383378,11.2732095 C56.8064343,11.5437666 56.6085791,11.9270557 56.5206434,12.265252 C56.2128686,12.4456233 55.9710456,12.6485411 55.6632708,12.7387268 C55.5753351,12.7612732 55.5533512,12.693634 55.5533512,12.6259947 Z M61.5549598,7.16976127 C61.7967828,7.0795756 62.3903485,6.69628647 62.3903485,6.69628647 C62.3903485,6.69628647 62.1485255,7.64323607 62.258445,8.07161804 C62.016622,8.3872679 61.6428954,8.74801061 61.3131367,8.9734748 C61.489008,8.52254642 61.5769437,7.53050398 61.5549598,7.16976127 Z M62.6761394,8.29708223 C62.6761394,8.29708223 62.7201072,8.29708223 62.7420912,8.29708223 C62.5002681,8.99602122 62.3243968,9.71750663 62.280429,10.5066313 C62.2144772,10.8222812 61.7967828,11.2055703 60.9174263,11.566313 C60.8294906,11.5888594 60.8075067,11.5888594 60.7855228,11.5212202 C60.741555,11.4310345 60.719571,11.295756 60.741555,11.1604775 C61.0493298,10.596817 61.1372654,10.1007958 61.1372654,9.64986737 C61.7308311,9.28912467 62.2364611,8.86074271 62.6761394,8.29708223 Z M63.6654155,8.95092838 C64.1490617,8.81564987 64.7206434,8.45490716 64.7206434,8.45490716 C64.6986595,8.6127321 64.5887399,9.04111406 64.5887399,9.04111406 C64.5887399,9.04111406 64.4348525,9.15384615 63.9512064,9.51458886 C63.6434316,9.76259947 63.027882,10.2586207 62.9179625,10.2586207 C62.8080429,10.2586207 62.8520107,10.0557029 62.8520107,9.9204244 C62.8520107,9.78514589 63.1378016,8.27453581 63.2477212,8.18435013 L63.5994638,7.9137931 C63.5994638,7.9137931 63.4895442,8.54509284 63.4895442,8.79310345 C63.4675603,8.95092838 63.5774799,8.9734748 63.6654155,8.95092838 Z M67.4246649,5.27586207 C67.5785523,5.433687 67.9302949,5.59151194 68.3040214,5.56896552 C68.1941019,5.70424403 67.9522788,5.81697613 67.6664879,5.81697613 C67.4466488,5.81697613 67.0949062,5.63660477 66.875067,5.38859416 C67.0509383,5.41114058 67.2707775,5.32095491 67.4246649,5.27586207 Z M66.6112601,5.05039788 C66.4573727,4.9602122 65.9297587,4.14854111 65.9077748,4.10344828 C65.9077748,4.08090186 65.9077748,4.0132626 65.9957105,4.0132626 C66.4353887,4.0132626 67.2048257,5.05039788 67.2048257,5.05039788 C66.9849866,5.16312997 66.7651475,5.14058355 66.6112601,5.05039788 Z M68.2820375,6.6061008 C68.172118,6.71883289 67.9522788,6.85411141 67.7544236,6.92175066 C67.7104558,6.74137931 67.7544236,6.3806366 67.8203753,6.20026525 C67.908311,6.20026525 68.0182306,6.17771883 68.1061662,6.13262599 C68.1281501,6.29045093 68.1941019,6.47082228 68.2820375,6.6061008 Z M68.2380697,7.10212202 C68.2380697,7.10212202 68.6337802,7.28249337 68.941555,7.25994695 C68.8316354,7.59814324 68.7217158,7.93633952 68.6117962,8.29708223 C68.5678284,8.29708223 67.5785523,7.75596817 67.2927614,7.68832891 C67.2268097,7.66578249 67.2707775,7.62068966 67.2707775,7.59814324 C67.2927614,7.57559682 67.5785523,7.32758621 67.5785523,7.32758621 C67.5785523,7.32758621 68.0621984,7.25994695 68.2380697,7.10212202 Z M69.7329759,5.18567639 C69.6450402,5.433687 69.5571046,5.70424403 69.447185,5.95225464 C69.2713137,5.83952255 69.0514745,5.61405836 68.941555,5.47877984 C69.0954424,5.23076923 69.2932976,5.11803714 69.4691689,5.00530504 C69.5131367,5.05039788 69.6450402,5.14058355 69.7329759,5.18567639 Z M69.4691689,4.37400531 C69.4691689,4.19363395 69.8868633,4.0132626 70.0847185,3.99071618 C70.0187668,4.23872679 69.952815,4.46419098 69.8868633,4.68965517 C69.7549598,4.66710875 69.4691689,4.50928382 69.4691689,4.37400531 Z M69.2932976,6.33554377 C69.2273458,6.51591512 69.1394102,6.69628647 69.0734584,6.89920424 C68.941555,6.89920424 68.7436997,6.85411141 68.6557641,6.83156499 C68.7656836,6.69628647 69.1174263,6.44827586 69.2932976,6.33554377 Z M68.9855228,6.11007958 C68.8756032,6.17771883 68.7656836,6.24535809 68.6337802,6.33554377 C68.5678284,6.26790451 68.4798928,6.08753316 68.4798928,5.97480106 C68.5458445,5.92970822 68.6337802,5.83952255 68.6997319,5.77188329 C68.7436997,5.88461538 68.8975871,5.99734748 68.9855228,6.11007958 Z M69.8648794,19.096817 C69.9747989,19.0742706 70.1286863,18.9840849 70.1726542,18.938992 C70.1726542,19.1419098 70.1506702,19.2997347 70.1506702,19.4801061 C70.1286863,19.637931 70.1726542,19.7055703 70.2386059,19.7281167 C70.2825737,19.7506631 70.3924933,19.795756 70.480429,19.795756 C70.4364611,19.9986737 70.1726542,20.3819629 69.9967828,20.4721485 C69.8868633,20.5172414 69.7989276,20.4496021 69.8428954,20.3143236 C69.8868633,20.1790451 69.9308311,19.5026525 69.8648794,19.096817 Z M70.0407507,21.0809019 C70.2605898,20.9681698 70.480429,20.6525199 70.5683646,20.5397878 C70.5243968,20.9681698 70.7002681,21.5318302 70.7002681,21.5318302 C70.5463807,22.0954907 70.3485255,22.5464191 70.1506702,22.862069 C70.1067024,22.8846154 70.0847185,22.862069 70.0407507,22.8395225 C69.9747989,22.6816976 69.8868633,22.5238727 69.8209115,22.3660477 C69.8209115,21.6445623 70.0407507,21.0809019 70.0407507,21.0809019 Z M70.7882038,22.3885942 L70.8321716,22.3885942 C70.9201072,22.7718833 70.9640751,22.9522546 71.0300268,23.132626 C70.8981233,23.4257294 70.6782842,23.8541114 70.5024129,24.1472149 C70.4364611,23.9217507 70.3705094,23.6962865 70.2825737,23.4933687 C70.5024129,23.1551724 70.6563003,22.7718833 70.7882038,22.3885942 Z M70.8761394,24.372679 C70.9201072,24.5981432 71.1179625,25.0941645 71.1179625,25.0941645 C70.986059,25.3421751 70.8541555,25.5225464 70.7662198,25.6352785 C70.7442359,25.3421751 70.722252,25.0490716 70.6563003,24.7559682 C70.7002681,24.6432361 70.8101877,24.4854111 70.8761394,24.372679 Z M71.0739946,21.2161804 C70.9420912,20.8554377 70.8541555,20.3143236 70.9420912,19.8408488 C71.1399464,19.8408488 71.4477212,19.7506631 71.6235925,19.6604775 C71.6895442,19.8183024 71.7335121,19.9761273 71.7994638,20.1564987 C71.7115282,20.5848806 71.3158177,21.3289125 71.1839142,21.3289125 C71.1619303,21.306366 71.0959786,21.306366 71.0739946,21.2161804 Z M70.5683646,19.367374 C70.5903485,19.096817 70.5463807,18.8713528 70.5243968,18.7360743 C70.7002681,18.5782493 70.8761394,18.397878 70.9640751,18.2175066 C71.1399464,18.5331565 71.2938338,18.8488064 71.4477212,19.2095491 C71.2718499,19.3448276 70.7882038,19.4575597 70.5683646,19.367374 Z M69.8648794,18.5782493 C69.7549598,18.5782493 69.7329759,18.4429708 69.7329759,18.3753316 C69.7329759,17.9469496 69.9088472,17.3156499 70.0407507,17.0450928 C69.7989276,17.0225464 69.0294906,17.1803714 68.8756032,17.2029178 C68.7656836,17.2254642 68.6997319,17.1352785 68.7217158,17.0450928 C68.7656836,16.8872679 69.1394102,16.0981432 69.3592493,15.7824934 L69.4911528,15.7374005 C69.8868633,16.4814324 70.3265416,17.1127321 70.7442359,17.8116711 C70.5683646,18.1047745 70.0407507,18.5782493 69.8648794,18.5782493 Z M66.369437,18.1498674 C66.4573727,18.0822281 66.6991957,17.8116711 66.8091153,17.6312997 C66.8091153,17.7214854 66.8530831,17.8793103 66.9190349,17.9469496 C66.7431635,18.668435 66.7431635,19.2320955 66.7431635,19.2320955 C66.7211796,19.2320955 66.6991957,19.2320955 66.6772118,19.2320955 C66.5672922,19.1870027 66.4573727,19.1419098 66.3474531,19.096817 C66.4134048,18.7811671 66.3914209,18.397878 66.369437,18.1498674 Z M66.8310992,16.9098143 C66.5672922,17.270557 66.2815013,17.5636605 65.9297587,17.8567639 C65.8418231,17.9244032 65.7978552,17.8116711 65.7978552,17.7665782 C65.7758713,17.3381963 65.8418231,16.9098143 65.9297587,16.5039788 L66.2375335,15.9854111 C66.7871314,15.9403183 67.2268097,15.7599469 67.2268097,15.7599469 L67.2487936,15.8050398 C66.9849866,16.3461538 66.8310992,16.9098143 66.8310992,16.9098143 Z M63.6873995,18.1949602 C63.6214477,18.1949602 63.5994638,18.1498674 63.5774799,18.1047745 C63.555496,18.0596817 63.4455764,17.3832891 63.6214477,16.8421751 C63.7313673,16.6843501 63.8632708,16.301061 63.8852547,16.1206897 C64.0171582,16.1206897 64.1710456,16.0981432 64.2809651,16.0530504 C64.2809651,16.0530504 64.1710456,16.4588859 64.1710456,16.8421751 C64.1710456,17.1127321 64.2589812,17.3381963 64.3908847,17.5185676 C64.3908847,17.4734748 64.1050938,18.1949602 63.6873995,18.1949602 Z M64.3689008,18.1724138 C64.3689008,18.4204244 64.324933,18.7360743 64.2809651,18.9615385 C64.1270777,18.9840849 63.9731903,19.0066313 63.8193029,19.0517241 C63.797319,18.9840849 63.7753351,18.8488064 63.7753351,18.7135279 C63.9951743,18.6233422 64.2809651,18.3527851 64.3689008,18.1724138 Z M60.6536193,17.1127321 C60.6316354,17.1127321 60.6316354,17.1127321 60.6096515,17.1127321 C60.5656836,17.0676393 60.5217158,17.0225464 60.4997319,16.9774536 C60.5436997,16.7519894 60.5876676,16.2785146 60.5656836,16.0079576 C60.7855228,15.9628647 61.3351206,15.5795756 61.5769437,15.3992042 C61.752815,15.4668435 61.8847185,15.4668435 62.0605898,15.3992042 C62.0386059,15.602122 61.9286863,16.0530504 61.8847185,16.2785146 C61.489008,16.6618037 61.0932976,16.9098143 60.6536193,17.1127321 Z M61.7967828,16.9323607 L61.7308311,17.428382 C61.6209115,17.6538462 61.5329759,17.9018568 61.510992,18.1724138 C61.3351206,17.9469496 61.1372654,17.698939 60.9174263,17.4734748 C61.1372654,17.3607427 61.5329759,17.1578249 61.7967828,16.9323607 Z M60.719571,14.0689655 C61.0932976,13.9111406 61.4230563,13.7082228 61.7088472,13.4376658 C61.7088472,13.4376658 61.510992,14.1366048 61.4230563,14.8355438 C61.1592493,15.1511936 60.5876676,15.5344828 60.4337802,15.5344828 C60.3678284,15.5344828 60.3458445,15.4893899 60.3458445,15.4217507 C60.3458445,15.0384615 60.5436997,14.3395225 60.719571,14.0689655 Z M60.2579088,13.66313 C60.1699732,13.66313 60.1699732,13.6180371 60.1699732,13.5729443 C60.2359249,13.1671088 60.4557641,12.6259947 60.6975871,12.2427056 C61.1152815,12.1525199 61.5989276,11.8819629 61.9067024,11.6564987 C61.9067024,11.6564987 61.7967828,12.0172414 61.7308311,12.6485411 C61.4670241,13.1445623 60.7635389,13.66313 60.2579088,13.66313 Z M63.4016086,13.6856764 C63.0718499,14.0464191 62.7640751,14.3169761 62.4782842,14.6100796 C62.3683646,14.7228117 62.258445,14.8580902 62.1045576,14.8580902 C61.9946381,14.8580902 61.9726542,14.7228117 61.9726542,14.632626 C61.9726542,14.3395225 62.0825737,13.7082228 62.1924933,13.234748 C62.5882038,13.2572944 63.1158177,12.9190981 63.3796247,12.5809019 C63.2697051,13.2798408 63.4016086,13.6856764 63.4016086,13.6856764 Z M62.1265416,17.5862069 C62.522252,17.5411141 62.9399464,17.3832891 63.2257373,17.1352785 C63.1597855,17.3381963 63.1158177,17.7214854 63.1158177,18.0145889 C62.8080429,18.3753316 62.3903485,18.668435 61.9726542,18.7811671 C61.9286863,18.7360743 61.9067024,18.6909814 61.8627346,18.6458886 C61.8627346,18.1949602 62.016622,17.8567639 62.1265416,17.5862069 Z M63.1597855,18.5106101 C63.2037534,18.6233422 63.3136729,18.7135279 63.4235925,18.7360743 C63.4235925,18.8262599 63.4235925,19.0291777 63.4235925,19.1419098 C63.0938338,19.2320955 62.786059,19.367374 62.5002681,19.4801061 C62.4343164,19.367374 62.3243968,19.2546419 62.2144772,19.096817 C62.5002681,19.0066313 62.9619303,18.7135279 63.1597855,18.5106101 Z M63.3576408,16.3236074 C63.1597855,16.7068966 62.6541555,17.0901857 62.3463807,17.0901857 C62.3024129,17.0901857 62.258445,17.0901857 62.258445,17.0225464 C62.258445,16.9549072 62.5662198,15.8050398 62.5882038,15.1962865 C62.786059,14.9482759 63.3136729,14.4973475 63.555496,14.2267905 C63.5774799,14.7453581 63.555496,15.9403183 63.3576408,16.3236074 Z M63.8193029,12.3328912 C64.0171582,11.6339523 64.7206434,11.1604775 64.8745308,11.0928382 C64.8965147,11.2732095 65.1383378,11.4535809 65.3142091,11.4535809 C65.1163539,11.7466844 65.0064343,11.9270557 64.9184987,12.2427056 C64.6327078,12.6710875 64.1710456,13.234748 63.8852547,13.4827586 C63.8412869,13.5278515 63.797319,13.505305 63.7753351,13.4602122 C63.7533512,13.1671088 63.7533512,12.6259947 63.8193029,12.3328912 Z M63.9512064,15.602122 L63.9072386,15.602122 L63.9951743,14.0013263 C64.5887399,13.505305 65.1823056,12.535809 65.1823056,12.535809 C65.1823056,12.535809 65.2482574,12.6034483 65.3801609,12.5809019 C65.2042895,12.8740053 65.0064343,13.1445623 65.0064343,13.4827586 C65.0064343,13.7533156 65.2042895,13.8660477 65.4900804,13.8885942 C65.2702413,14.1140584 65.1383378,14.4297082 65.0284182,14.6777188 C64.7426273,15.1061008 64.1930295,15.602122 63.9512064,15.602122 Z M67.2048257,13.8660477 C67.4686327,13.9787798 67.7104558,14.0238727 68.0182306,14.0464191 C68.0182306,14.362069 67.6664879,15.0159151 67.4246649,15.1962865 C66.8970509,15.4217507 66.3474531,15.5570292 66.2595174,15.4893899 C66.1715818,15.3766578 66.4353887,14.3395225 67.2048257,13.8660477 Z M66.0836461,14.4973475 C65.9297587,14.5649867 65.6439678,14.5875332 65.5120643,14.5649867 C65.5560322,14.4071618 65.8198391,14.0238727 65.9517426,13.9111406 C66.1495979,13.9111406 66.4573727,13.8660477 66.633244,13.8209549 C66.4353887,13.9787798 66.2155496,14.2944297 66.0836461,14.4973475 Z M67.2707775,13.4151194 C67.2707775,13.1671088 67.908311,12.3328912 68.2600536,12.2877984 C68.3699732,12.265252 68.3919571,12.2877984 68.4359249,12.3103448 C68.4798928,12.693634 68.5458445,13.0318302 68.6117962,13.3700265 C68.2380697,13.6405836 67.2707775,13.5503979 67.2707775,13.4151194 Z M68.3260054,10.6644562 C68.3260054,10.7997347 68.3260054,10.9575597 68.3260054,11.0928382 C68.3260054,11.295756 68.3479893,11.4986737 68.3479893,11.6790451 C68.150134,11.8143236 67.402681,11.7241379 67.0729223,11.4084881 C67.1828418,11.3633952 67.3806971,11.2055703 67.5785523,10.8899204 C67.7983914,10.5517241 68.0621984,10.3262599 68.0621984,10.3262599 L68.3260054,10.3488064 C68.3260054,10.4164456 68.3260054,10.4840849 68.3260054,10.5742706 L68.3260054,10.6644562 Z M68.3479893,9.9204244 C68.0182306,9.87533156 67.3147453,9.62732095 67.1608579,9.49204244 C67.0949062,9.4469496 67.1168901,9.37931034 67.1828418,9.33421751 C67.4246649,9.13129973 68.0841823,8.77055703 68.5238606,8.74801061 C68.4359249,9.10875332 68.3699732,9.49204244 68.3479893,9.9204244 Z M67.6225201,10.1909814 C67.3587131,10.4615385 67.1168901,10.9350133 66.7431635,11.0477454 C66.3914209,11.1604775 65.6879357,11.0928382 65.5780161,11.0477454 C65.4680965,11.0251989 65.4900804,10.9124668 65.5340483,10.867374 C65.863807,10.3938992 66.4134048,9.94297082 66.7651475,9.78514589 C66.9410188,9.89787798 67.2707775,10.1007958 67.6225201,10.1909814 Z M65.7538874,11.5212202 C65.8857909,11.5437666 66.2155496,11.566313 66.4353887,11.5437666 C66.3254692,11.6564987 65.9957105,11.8819629 65.6659517,12.2427056 C65.336193,12.1299735 65.5780161,11.83687 65.7538874,11.5212202 Z M66.7871314,11.7917772 C67.0509383,11.9721485 67.3806971,12.1074271 67.7324397,12.1299735 C67.7324397,12.1299735 67.1608579,12.5132626 66.9190349,13.2572944 C66.5013405,13.4376658 66.0836461,13.505305 65.6439678,13.4602122 C65.5780161,13.4602122 65.4680965,13.4151194 65.5120643,13.3249337 C65.6219839,12.8965517 66.2375335,12.1976127 66.7871314,11.7917772 Z M64.6986595,15.7824934 C64.6986595,15.7824934 65.1823056,15.2639257 65.2702413,14.9933687 C65.2702413,14.9933687 65.6439678,15.0384615 65.863807,14.9708223 C65.7758713,15.2864721 65.7319035,15.5344828 65.7319035,15.872679 C65.4680965,16.6392573 64.9844504,17.0901857 64.7426273,17.0901857 C64.6107239,17.0901857 64.5008043,16.571618 64.6986595,15.7824934 Z M64.8745308,17.5185676 C65.0284182,17.4960212 65.336193,17.270557 65.4241287,17.1352785 C65.4241287,17.1352785 65.2922252,17.7891247 65.4680965,18.3076923 C65.2042895,18.5557029 64.9404826,18.7135279 64.830563,18.7135279 C64.7206434,18.7135279 64.7206434,18.0596817 64.8745308,17.5185676 Z M65.9517426,18.4655172 C65.9517426,18.6458886 65.9077748,18.8713528 65.8418231,18.9840849 C65.6879357,18.9615385 65.5120643,18.938992 65.3581769,18.9164456 C65.6659517,18.7586207 65.9517426,18.4655172 65.9517426,18.4655172 Z M67.9962466,19.6153846 C68.0621984,19.7281167 68.172118,19.8859416 68.3919571,19.8633952 C68.3919571,19.9761273 68.3479893,20.2241379 68.3260054,20.3143236 C68.2380697,20.2466844 68.1281501,20.2015915 68.0402145,20.1339523 C67.908311,20.0212202 67.7983914,19.9310345 67.6664879,19.8408488 C67.7544236,19.7506631 67.908311,19.6604775 67.9962466,19.6153846 Z M67.2927614,19.4575597 C67.2487936,19.4801061 67.1168901,19.4801061 67.1168901,19.3222812 C67.0949062,18.7135279 67.1828418,18.3527851 67.2927614,17.9018568 C67.5565684,17.7665782 67.8203753,17.5636605 68.1061662,17.3832891 C68.1061662,17.4734748 68.150134,17.5636605 68.172118,17.5862069 C67.9742627,18.0596817 67.908311,18.5106101 67.8863271,19.0742706 C67.6884718,19.1870027 67.3367292,19.4350133 67.2927614,19.4575597 Z M68.3040214,16.7970822 C67.9522788,16.9549072 67.4466488,17.3381963 67.2927614,17.3381963 C67.2268097,17.3381963 67.1828418,17.2931034 67.1828418,17.2029178 C67.2487936,16.7970822 67.4686327,16.2559682 67.644504,15.872679 C67.9522788,15.9628647 68.2380697,15.9628647 68.7656836,15.9177719 C68.5238606,16.2334218 68.3040214,16.7970822 68.3040214,16.7970822 Z M68.6557641,17.7665782 C68.8756032,17.6538462 69.2053619,17.5862069 69.4252011,17.5636605 C69.3592493,17.8793103 69.2932976,18.2851459 69.3592493,18.6007958 C69.3592493,18.6007958 68.8536193,18.9615385 68.5458445,19.2771883 C68.4798928,19.3448276 68.4359249,19.2771883 68.4359249,19.2095491 C68.3919571,18.6909814 68.4579088,18.1724138 68.6557641,17.7665782 Z M68.8536193,19.6153846 C68.8536193,19.6153846 69.0954424,19.3448276 69.4032172,19.1644562 L69.447185,19.1644562 C69.5131367,19.3899204 69.5351206,19.8408488 69.447185,20.2241379 C69.2932976,20.4270557 68.919571,20.6525199 68.6997319,20.6525199 L68.6557641,20.6525199 C68.8316354,20.3819629 68.8316354,19.9761273 68.8536193,19.6153846 Z M69.4691689,20.6750663 C69.4911528,20.8103448 69.5790885,20.9230769 69.6450402,20.9907162 C69.5790885,21.2387268 69.4911528,21.5092838 69.4911528,21.7798408 C69.4911528,21.7798408 69.4691689,21.7798408 69.4691689,21.7572944 C69.2932976,21.4867374 69.1174263,21.2387268 68.919571,21.0132626 C69.0954424,20.9456233 69.3592493,20.8554377 69.4691689,20.6750663 Z M68.1281501,15.4442971 C67.9522788,15.4217507 67.908311,15.3541114 67.908311,15.3541114 C68.150134,15.1061008 68.4359249,14.6551724 68.5018767,13.9787798 L68.7217158,13.8660477 C68.8536193,14.362069 69.0294906,14.8129973 69.2273458,15.2188329 C69.0734584,15.3766578 68.5238606,15.5119363 68.1281501,15.4442971 Z M67.7764075,8.43236074 C67.7764075,8.43236074 67.7983914,8.47745358 67.7324397,8.5 C67.402681,8.56763926 66.9190349,8.86074271 66.6112601,9.13129973 C66.6112601,9.13129973 65.863807,8.99602122 65.7538874,8.90583554 C66.0616622,8.6127321 66.5013405,8.25198939 66.7431635,8.00397878 C67.0509383,8.04907162 67.6225201,8.27453581 67.7764075,8.43236074 Z M66.3034853,9.49204244 L66.3034853,9.51458886 C65.7758713,9.78514589 65.1603217,10.5066313 65.1603217,10.5066313 C65.1603217,10.5066313 64.8525469,10.5517241 64.5447721,10.7095491 C64.4568365,10.7546419 64.2150134,10.9350133 64.061126,11.1153846 C64.0831099,10.4615385 64.1050938,9.98806366 64.4568365,9.71750663 C64.830563,9.4469496 65.2262735,9.26657825 65.2262735,9.26657825 C65.5340483,9.37931034 65.9297587,9.46949602 66.3034853,9.49204244 Z M63.7313673,10.2360743 C63.5994638,10.5517241 63.5774799,11.0928382 63.5774799,11.6339523 C63.3796247,11.994695 62.7201072,12.693634 62.4123324,12.693634 C62.3024129,12.693634 62.280429,12.5583554 62.280429,12.4230769 C62.280429,11.9721485 62.4343164,11.3633952 62.4343164,11.3633952 C62.6321716,11.2055703 62.7201072,11.0026525 62.786059,10.867374 C63.1817694,10.7320955 63.5994638,10.3713528 63.7313673,10.2360743 Z M59.4225201,10.1458886 C59.3565684,10.168435 59.3126005,10.1458886 59.3126005,10.0782493 C59.3126005,10.0106101 59.7302949,8.92838196 59.708311,8.11671088 C60.1260054,8.00397878 60.8075067,7.53050398 60.8075067,7.53050398 C60.9174263,7.48541114 60.9394102,7.53050398 60.9394102,7.66578249 C60.983378,9.04111406 60.6096515,9.80769231 59.4225201,10.1458886 Z M60.6096515,10.0331565 C60.5876676,10.2360743 60.5217158,10.6419098 60.3018767,11.0026525 C60.0380697,11.4310345 58.9828418,12.1750663 58.8509383,12.1750663 C58.7630027,12.1750663 58.7410188,12.1299735 58.7630027,12.0623342 C58.8289544,11.7466844 59.0268097,11.0251989 59.1587131,10.6870027 C59.6643432,10.596817 60.2359249,10.3488064 60.6096515,10.0331565 Z M58.8289544,12.7161804 C59.3565684,12.5132626 60.1040214,11.9270557 60.2798928,11.6790451 C60.2798928,11.6790451 60.2798928,11.994695 60.3458445,12.1299735 C60.0380697,12.535809 59.7962466,13.0994695 59.6423592,13.5729443 C59.3565684,13.8435013 58.9168901,14.2718833 58.4991957,14.2718833 C58.433244,14.0464191 58.6091153,13.1671088 58.8289544,12.7161804 Z M60.1479893,16.0530504 C60.1699732,16.1657825 60.1699732,16.4363395 60.1479893,16.5941645 C60.0380697,16.4814324 59.9281501,16.3687003 59.8182306,16.2559682 L59.3126005,15.6923077 C59.444504,15.5570292 59.7522788,15.4442971 59.9061662,15.3766578 C59.8841823,15.602122 59.9941019,15.9403183 60.1479893,16.0530504 Z M59.9281501,14.9708223 C59.6423592,15.0159151 59.0927614,15.2413793 58.8949062,15.3992042 C58.8729223,15.3766578 58.8289544,15.3541114 58.8069705,15.331565 C58.8729223,15.2413793 59.1147453,14.8580902 59.0707775,14.5875332 C59.2246649,14.5198939 59.4884718,14.3169761 59.6203753,14.1591512 C59.7962466,14.204244 59.9941019,14.2493369 60.1699732,14.204244 C60.0600536,14.4297082 59.972118,14.7002653 59.9281501,14.9708223 Z M57.4659517,13.5954907 C57.5099196,13.4602122 57.5319035,13.3023873 57.4879357,13.1445623 C57.7517426,13.0769231 58.1254692,12.9416446 58.2793566,12.8514589 C58.2793566,12.8514589 58.1254692,13.1896552 58.1034853,13.4151194 C57.8616622,13.4376658 57.6418231,13.505305 57.4659517,13.5954907 Z M57.9935657,13.9111406 L57.9495979,14.6100796 C57.7737265,14.4748011 57.5978552,14.3395225 57.4,14.2267905 C57.4,14.2267905 57.4,14.204244 57.4,14.204244 C57.4219839,14.1140584 57.7737265,13.9111406 57.9935657,13.9111406 Z M58.6310992,14.7002653 C58.5871314,14.8580902 58.5211796,14.9933687 58.4772118,15.0384615 C58.3892761,14.9708223 58.3013405,14.903183 58.2134048,14.8355438 C58.4112601,14.8129973 58.6091153,14.7228117 58.6310992,14.7002653 Z M58.1914209,12.3103448 C58.0155496,12.4907162 57.4439678,12.7161804 57.1581769,12.7612732 C57.0482574,12.7838196 56.9383378,12.7387268 57.0042895,12.535809 C57.1801609,11.8594164 57.3560322,11.4084881 57.4659517,11.2281167 C57.8396783,11.1153846 58.3672922,10.9575597 58.675067,10.7095491 C58.433244,11.2281167 58.1914209,12.3103448 58.1914209,12.3103448 Z M60.8514745,20.33687 C59.972118,20.8103448 59.1806971,21.2161804 58.169437,21.2161804 C55.8831099,21.2161804 54.058445,20.5848806 52.9152815,19.4124668 C51.9699732,18.4429708 51.7281501,17.3607427 51.7281501,16.9098143 C51.7281501,15.9403183 52.3656836,14.9257294 54.1463807,14.9257294 C56.2788204,14.9257294 59.1806971,18.1047745 60.8514745,20.33687 Z M67.4466488,40.6511936 C66.4793566,38.8700265 63.1378016,35.4655172 63.1378016,33.030504 C63.1378016,32.0384615 63.5335121,31.5198939 64.1930295,31.362069 C64.3689008,31.3395225 64.566756,31.3395225 64.7865952,31.3169761 C67.4246649,31.5875332 69.2713137,38.0583554 70.6563003,41.530504 C70.6563003,41.530504 70.6563003,41.530504 70.6343164,41.530504 C67.0069705,37.5623342 67.1168901,33.5265252 65.1383378,33.5265252 C64.8085791,33.5265252 64.4348525,33.7970822 64.4348525,34.270557 C64.4348525,35.7135279 66.4793566,36.7506631 67.4466488,40.6511936 Z M53.3769437,27.1458886 C53.3769437,27.1458886 53.1351206,27.2811671 53.0252011,27.3488064 C52.9152815,27.4164456 52.4756032,27.6870027 52.4756032,27.6870027 C51.9479893,27.7546419 51.0686327,27.7546419 50.4530831,27.5066313 C50.4091153,27.4840849 50.3871314,27.438992 50.4310992,27.4164456 C50.6949062,27.1233422 51.5522788,26.8753316 51.6402145,26.8527851 C51.8160858,26.7851459 51.8380697,26.7400531 51.9040214,26.6724138 C52.3436997,26.8753316 52.9812332,27.1007958 53.3769437,27.1458886 Z M52.1458445,26.0636605 C52.4975871,25.770557 53.2670241,25.4774536 53.7726542,25.3872679 C53.7946381,25.8381963 53.8825737,26.2891247 53.9705094,26.7400531 C53.5088472,26.8527851 52.2997319,26.3116711 52.1458445,26.198939 C52.1238606,26.1763926 52.1018767,26.1087533 52.1458445,26.0636605 Z M52.0359249,28.137931 C52.0359249,28.1830239 52.0359249,28.2281167 52.0579088,28.2732095 C51.6621984,28.4310345 51.1126005,28.7241379 50.738874,28.994695 C50.1453083,28.9270557 49.3978552,28.7917772 49.1560322,28.7015915 C49.0680965,28.6790451 49.0461126,28.6114058 49.1120643,28.5437666 C49.2439678,28.4084881 49.8595174,28.0928382 50.1233244,27.9575597 C50.3651475,28.0251989 50.9147453,28.1830239 52.0359249,28.137931 Z M51.1785523,29.3103448 C51.5302949,29.0172414 52.013941,28.7692308 52.4756032,28.566313 C52.8713137,28.7692308 53.5967828,28.83687 54.080429,28.8594164 C53.9045576,28.9496021 53.5088472,29.265252 53.310992,29.5132626 C52.7394102,29.6485411 51.6182306,29.6485411 51.1785523,29.3779841 C51.1565684,29.3779841 51.1565684,29.3554377 51.1785523,29.3103448 Z M53.0032172,28.1830239 C52.9152815,28.137931 52.9372654,28.0928382 52.9812332,28.0477454 C53.289008,27.7997347 53.816622,27.4840849 54.1463807,27.3488064 C54.2563003,27.7095491 54.3882038,28.0477454 54.5420912,28.3633952 C54.1243968,28.4084881 53.2450402,28.295756 53.0032172,28.1830239 Z M55.597319,24.801061 C55.597319,24.1923077 55.8171582,23.4257294 55.9710456,22.9071618 C56.6745308,23.0198939 57.4,23.0875332 58.169437,23.0875332 C59.7522788,23.0875332 60.9394102,22.4111406 61.9946381,21.8249337 C63.027882,21.2387268 63.9072386,20.7427056 65.1383378,20.7427056 C65.9957105,20.7427056 66.9190349,21.3740053 67.7104558,22.4562334 C68.4798928,23.5159151 68.941555,24.8461538 68.941555,25.9509284 C68.941555,27.1233422 68.5678284,28.1604775 67.8863271,28.7917772 C67.402681,29.2427056 66.7651475,29.4907162 66.0176944,29.4907162 C65.9077748,29.4907162 65.7978552,29.4907162 65.6879357,29.4681698 C65.4021448,29.4456233 65.1163539,29.4230769 64.8525469,29.4230769 C63.3796247,29.4230769 62.4343164,29.8289125 61.6428954,30.1445623 C61.0053619,30.4151194 60.477748,30.6180371 59.7742627,30.6180371 C58.9168901,30.6180371 57.8616622,29.9867374 57.0482574,28.9721485 C56.124933,27.7997347 55.597319,26.2891247 55.597319,24.801061 Z M54.1903485,22.433687 C54.1024129,22.6816976 54.0364611,22.9748011 53.9485255,23.2679045 C53.5088472,23.1551724 52.9812332,23.1551724 52.6075067,23.2453581 C52.4975871,23.1100796 52.3656836,22.9973475 52.277748,22.9297082 C52.2117962,22.862069 52.2337802,22.8395225 52.2557641,22.8395225 C52.4536193,22.6816976 53.1351206,22.3209549 53.5747989,22.1856764 C53.7946381,22.2533156 53.9924933,22.3435013 54.1903485,22.433687 Z M53.8605898,23.7413793 C53.816622,23.9442971 53.7946381,24.1472149 53.7726542,24.3275862 C53.7726542,24.3952255 53.7726542,24.4403183 53.7506702,24.5079576 C53.7506702,24.530504 53.7506702,24.5530504 53.7506702,24.5755968 C53.7506702,24.6432361 53.7506702,24.7334218 53.7506702,24.801061 C53.7506702,24.8461538 53.7506702,24.8687003 53.7506702,24.9137931 C53.2010724,24.8461538 52.541555,24.4177719 52.1678284,24.2374005 C52.1018767,24.2148541 52.0798928,24.1697613 52.1458445,24.1246684 C52.5855228,23.6511936 53.1571046,23.6286472 53.8605898,23.7413793 Z M52.9592493,25.1618037 L52.9592493,25.1843501 C52.4756032,25.3196286 52.0579088,25.4774536 51.6841823,25.7480106 C51.0686327,25.7254642 50.4530831,25.6578249 50.0134048,25.4323607 C49.9474531,25.4098143 49.9034853,25.2970822 50.0573727,25.229443 C50.5630027,24.9137931 51.0906166,24.7559682 51.6621984,24.5755968 C52.013941,24.7334218 52.4316354,24.9137931 52.9592493,25.1618037 Z M51.4423592,26.198939 C51.4423592,26.2665782 51.4423592,26.3567639 51.508311,26.4244032 C51.0466488,26.4920424 50.4091153,26.7851459 50.0353887,27.0331565 C49.3758713,27.0782493 48.7603217,26.9429708 48.3426273,26.8076923 C48.2986595,26.7851459 48.2766756,26.7851459 48.3426273,26.6949602 C48.5404826,26.4018568 49.5517426,26.0411141 49.8375335,25.928382 C50.1453083,26.0411141 51.4423592,26.198939 51.4423592,26.198939 Z M49.7935657,27.4615385 C49.7935657,27.4615385 49.7495979,27.5291777 49.7935657,27.6419098 C49.7935657,27.6419098 49.0900804,27.8899204 48.7163539,28.1604775 C48.1008043,28.1604775 47.2214477,28.0251989 46.9796247,27.8222812 C46.9136729,27.7771883 46.9136729,27.6870027 47.0016086,27.6419098 C47.2434316,27.5066313 47.7490617,27.3262599 47.9689008,27.168435 C48.4965147,27.3262599 49.4857909,27.5066313 49.7935657,27.4615385 Z M48.430563,28.6339523 C48.3865952,28.7241379 48.4525469,28.8594164 48.4965147,28.9045093 L48.2766756,29.0172414 C47.8589812,29.265252 47.5512064,29.3779841 47.1994638,29.4907162 C46.6938338,29.4907162 46.0343164,29.3554377 45.5286863,29.1750663 C45.4627346,29.1525199 45.4627346,29.1074271 45.4847185,29.0623342 C45.7705094,28.8143236 46.4959786,28.4535809 46.9136729,28.3408488 C47.2873995,28.4761273 47.8809651,28.5888594 48.430563,28.6339523 Z M45.0010724,28.83687 C44.9351206,28.8819629 44.8691689,28.9721485 44.847185,29.0172414 C44.4734584,28.9496021 43.9898123,28.8594164 43.8359249,28.7241379 C43.7919571,28.7015915 43.813941,28.6564987 43.8359249,28.6114058 L44.0337802,28.4761273 C44.2096515,28.5888594 44.6713137,28.7466844 45.0010724,28.83687 Z M44.0117962,30.0994695 C43.9678284,30.0769231 43.9678284,30.0318302 44.0117962,30.0092838 C44.2096515,29.8740053 44.847185,29.5809019 45.0450402,29.4907162 C45.616622,29.7387268 46.4959786,29.8965517 46.7817694,29.8965517 C46.7378016,29.964191 46.7378016,30.0318302 46.7378016,30.0994695 C46.5399464,30.1220159 46.0782842,30.3474801 45.7045576,30.5729443 C45.0450402,30.505305 44.5394102,30.3700265 44.0117962,30.0994695 Z M45.8364611,31.1140584 C46.5179625,30.66313 46.8477212,30.5503979 47.0895442,30.4602122 C47.0895442,30.4602122 47.7930295,30.7082228 48.2986595,30.7758621 C47.7270777,31.362069 46.6938338,31.4071618 45.880429,31.2267905 C45.7924933,31.1816976 45.7924933,31.1366048 45.8364611,31.1140584 Z M47.4632708,30.0543767 C47.3753351,30.0092838 47.3753351,29.9416446 47.4412869,29.9190981 C47.8809651,29.7838196 48.5184987,29.4456233 48.9581769,29.1976127 C48.9581769,29.1976127 49.7276139,29.4005305 50.3871314,29.4456233 C50.1453083,29.693634 49.1340483,30.1671088 48.936193,30.3474801 C48.4525469,30.3925729 47.9029491,30.234748 47.4632708,30.0543767 Z M49.5517426,30.6405836 C50.0134048,30.3700265 50.4970509,30.0994695 50.8048257,29.8514589 C51.3324397,30.0543767 52.013941,30.0994695 52.4975871,30.0543767 C52.4975871,30.0543767 51.7061662,30.6180371 51.5302949,30.8660477 C51.0246649,30.9787798 49.969437,30.8435013 49.5517426,30.7082228 C49.5297587,30.7082228 49.5077748,30.6856764 49.5517426,30.6405836 Z M52.2557641,30.8885942 C52.3656836,30.7307692 52.9812332,30.2798408 53.289008,30.0994695 C53.6847185,30.1671088 54.1463807,30.3249337 54.6300268,30.5729443 L54.1903485,30.9787798 C53.816622,31.0464191 52.5855228,31.0238727 52.2997319,30.9562334 C52.2557641,30.933687 52.2337802,30.9111406 52.2557641,30.8885942 Z M53.9265416,29.693634 C53.8605898,29.6710875 53.8605898,29.6485411 53.9265416,29.6034483 C54.1903485,29.3554377 54.4981233,29.1299735 54.827882,28.994695 C55.0257373,29.3328912 55.2235925,29.6485411 55.4654155,29.964191 C55.3335121,30.0318302 55.0697051,30.1671088 55.0697051,30.1671088 C55.0697051,30.1671088 54.4541555,29.8289125 53.9265416,29.693634 Z M54.849866,31.0689655 C55.0257373,30.8660477 55.4873995,30.5729443 55.8171582,30.4151194 C56.1469169,30.7984085 56.5206434,31.1366048 56.89437,31.4297082 C56.4766756,31.4748011 55.355496,31.2944297 54.9378016,31.204244 C54.849866,31.1591512 54.8058981,31.1140584 54.849866,31.0689655 Z M57.4879357,32.5795756 C57.7297587,32.8275862 58.0595174,33.1432361 58.3892761,33.4363395 C56.3447721,35.7360743 52.013941,39.2984085 51.1345845,39.9522546 C51.0466488,39.433687 51.1345845,38.6671088 51.3544236,38.1034483 C51.7941019,37.066313 52.9152815,34.3156499 53.5308311,32.7374005 C54.827882,32.7824934 56.0150134,32.8050398 57.4879357,32.5795756 Z M53.047185,48.3395225 C53.047185,48.2944297 53.0691689,48.2493369 53.1351206,48.204244 C53.2230563,48.1366048 53.3989276,48.0464191 53.6187668,47.9787798 C53.8825737,48.7228117 53.3769437,49.2413793 53.1571046,49.2188329 C53.1790885,48.9257294 53.1351206,48.5424403 53.047185,48.3395225 Z M52.783378,49.2413793 C52.7174263,49.2864721 52.519571,49.2639257 52.4316354,49.2413793 C52.541555,49.1737401 52.7174263,48.9708223 52.7613941,48.8355438 C52.783378,48.9708223 52.783378,49.1511936 52.783378,49.2413793 Z M51.772118,48.1140584 C51.9260054,48.0689655 52.1678284,48.0915119 52.3436997,48.204244 C52.4536193,48.9482759 52.0359249,49.1962865 51.8160858,49.1962865 C51.9919571,48.632626 51.772118,48.1140584 51.772118,48.1140584 Z M53.9924933,47.2798408 C53.9265416,46.7838196 53.6407507,46.4456233 52.8053619,46.265252 C52.541555,44.7546419 51.3764075,44.0331565 50.2552279,44.1007958 C50.6069705,43.3342175 57.2680965,38.7122016 59.8841823,34.8116711 C61.8627346,36.3222812 64.5447721,39.704244 65.6879357,41.9814324 C66.3254692,43.2891247 66.0396783,44.7095491 66.7431635,45.8143236 C66.7431635,45.8143236 66.875067,47.505305 67.9742627,47.7758621 C68.3260054,47.8660477 68.6997319,47.7082228 68.8536193,47.6405836 C69.2053619,48.2718833 69.9747989,48.9482759 70.3265416,49.3090186 L54.2123324,49.3090186 C54.4541555,48.7002653 54.586059,47.8885942 53.9924933,47.2798408 Z M75.3168901,48.4748011 C75.3168901,48.4748011 75.4707775,48.3395225 75.6466488,48.3395225 C75.844504,48.3395225 75.9764075,48.3846154 76.0643432,48.4522546 C76.1522788,48.7002653 76.0643432,49.0159151 75.9324397,49.1962865 C75.7565684,48.8129973 75.5147453,48.632626 75.3168901,48.4748011 Z M77.6032172,49.2639257 C77.5152815,48.9933687 77.383378,48.6777188 77.141555,48.4071618 C77.3174263,48.2718833 77.5592493,48.1366048 77.7790885,48.2718833 C77.8670241,48.5424403 77.8450402,49.0835544 77.6032172,49.2639257 Z M79.3179625,47.7307692 C79.7136729,47.8660477 79.9115282,48.8806366 79.427882,49.1286472 C79.3839142,48.6777188 79.0541555,48.3846154 78.8563003,48.204244 C78.9002681,48.0915119 79.1640751,47.7533156 79.3179625,47.7307692 Z M68.4579088,31.4297082 C69.6670241,33.8196286 70.1946381,35.8713528 71.0959786,39.862069 C71.8214477,43.0636605 73.6900804,45.1153846 74.1737265,45.295756 C74.6573727,45.4761273 76.1962466,44.7095491 76.8997319,45.6564987 C77.9549598,47.2122016 78.680429,46.8965517 78.680429,47.66313 C78.5265416,47.7984085 78.3946381,48.0915119 78.3726542,48.362069 C78.6364611,48.4973475 78.9442359,48.903183 78.9442359,49.3090186 L78.0209115,49.3090186 C78.0428954,49.2639257 78.1967828,48.8806366 78.1967828,48.5424403 C78.1967828,47.5954907 77.1635389,47.2122016 76.350134,45.8819629 C76.3061662,45.9045093 76.2621984,45.9496021 76.2402145,46.0172414 C76.4380697,46.6259947 76.9656836,47.4376658 77.3174263,47.8660477 C77.119571,47.933687 76.8557641,48.2493369 76.7678284,48.4522546 C76.8557641,48.5424403 77.0975871,49.0159151 77.1635389,49.3090186 L76.2841823,49.3090186 C76.372118,49.1511936 76.4820375,48.8580902 76.4820375,48.5198939 C76.4820375,48.5198939 76.6798928,48.204244 76.6798928,47.9562334 C76.6798928,46.8289125 75.6686327,46.2427056 74.4155496,45.8143236 C72.8546917,45.2732095 72.3930295,44.8448276 71.4257373,43.5371353 C71.3817694,43.5145889 71.3158177,43.4920424 71.2938338,43.4920424 C71.2938338,44.3938992 72.1072386,45.2281167 72.6348525,45.6790451 C73.6680965,46.5583554 75.9983914,46.7387268 75.9983914,47.933687 C75.4927614,47.7984085 74.833244,48.0915119 74.7672922,48.5198939 C74.8772118,48.6100796 75.2729223,49.0835544 75.3168901,49.2639257 L74.1077748,49.2639257 C73.8879357,48.7679045 73.2504021,48.4071618 72.3930295,48.0013263 C72.3270777,48.0013263 72.1951743,48.0689655 72.261126,48.1140584 C72.7447721,48.4748011 73.2504021,48.8806366 73.2504021,49.2639257 L71.6895442,49.2639257 C71.2938338,48.5875332 69.9967828,47.8660477 69.4252011,47.0994695 C69.5351206,46.806366 69.5351206,45.9045093 69.183378,45.5437666 C69.2932976,46.4230769 68.919571,46.9190981 68.3479893,46.9190981 C67.6225201,46.9190981 67.4686327,46.1976127 67.4906166,45.566313 C66.5453083,44.2586207 67.5126005,43.198939 65.6659517,40.2904509 C63.6654155,37.1564987 61.6209115,34.8342175 58.7849866,32.5119363 C58.7849866,32.5119363 59.4225201,32.602122 59.7522788,32.602122 C60.6756032,32.602122 61.752815,32.1511936 62.5442359,31.7453581 C62.5882038,31.7228117 62.6541555,31.7002653 62.6981233,31.6777188 C62.5662198,31.9257294 62.3903485,32.5119363 62.3903485,33.0530504 C62.3903485,36.4575597 66.875067,39.4111406 67.9522788,43.2440318 L68.0182306,43.2440318 C68.5458445,38.3740053 65.0064343,35.1949602 65.0064343,34.3607427 C65.0064343,34.1803714 65.09437,34.0676393 65.2262735,34.0676393 C66.2375335,34.0676393 68.0841823,41.372679 71.5356568,42.6803714 C71.5796247,42.6803714 71.6235925,42.6352785 71.6455764,42.6127321 C69.183378,37.0888594 68.8096515,33.3461538 66.4353887,31.2718833 C67.4466488,31.1816976 68.3479893,30.7758621 69.0734584,30.0994695 C69.8648794,29.3554377 70.3705094,28.3408488 70.5903485,27.168435 C70.6343164,27.2586207 70.7002681,27.5066313 70.8101877,27.6193634 C70.8981233,27.6870027 71.0739946,27.6419098 71.1839142,27.596817 C70.6343164,28.9045093 69.5790885,30.3925729 68.4579088,31.4297082 Z M71.5136729,27.1458886 C71.3817694,27.1909814 71.2058981,27.2135279 71.0959786,27.1007958 C70.9201072,26.9204244 70.8101877,26.5145889 70.7442359,26.4018568 C70.9201072,26.198939 71.227882,25.770557 71.3158177,25.5225464 C71.4257373,25.7029178 71.6016086,25.770557 71.7335121,25.770557 C71.7774799,25.770557 71.9093834,25.7029178 72.0412869,25.6127321 C71.9313673,26.1312997 71.7335121,26.6498674 71.5136729,27.1458886 Z M72.2831099,23.8766578 C72.2831099,24.1697613 72.261126,24.4628647 72.2171582,24.7559682 C72.0852547,24.9588859 71.8654155,25.1618037 71.7994638,25.1618037 C71.6895442,25.1618037 71.6016086,25.0265252 71.5576408,24.9363395 C71.3817694,24.6206897 71.1619303,24.1246684 71.0959786,23.9442971 C71.1399464,23.8766578 71.227882,23.6511936 71.249866,23.561008 C71.3597855,23.7864721 71.5356568,24.102122 71.6675603,24.2374005 C71.755496,24.3275862 71.7774799,24.3501326 71.8654155,24.2374005 C71.997319,24.0795756 72.1951743,23.7639257 72.261126,23.561008 C72.2831099,23.6511936 72.2831099,23.7639257 72.2831099,23.8766578 Z M72.0193029,20.9907162 C72.1292225,21.464191 72.1951743,21.9827586 72.2391421,22.5689655 C72.1292225,22.9071618 71.9093834,23.3580902 71.8434316,23.4257294 C71.7774799,23.4933687 71.7115282,23.4257294 71.6455764,23.3580902 C71.4257373,23.0198939 71.0959786,22.3435013 71.1619303,21.9827586 C71.4477212,21.8700265 71.8873995,21.3514589 72.0193029,20.9907162 Z M75.0310992,14.4297082 C75.3168901,14.7453581 75.2289544,15.3090186 75.0970509,15.5570292 C74.9651475,15.4668435 74.7233244,15.2864721 74.6134048,15.1962865 C74.7672922,14.9933687 74.9651475,14.7002653 75.0310992,14.4297082 Z M73.2723861,13.3474801 C73.1404826,12.6259947 73.1624665,12.6034483 73.7780161,11.7692308 C73.6900804,12.535809 73.7340483,13.3474801 73.8,13.7758621 C73.6021448,13.7082228 73.3383378,13.66313 73.2723861,13.3474801 Z M72.7887399,13.1671088 C72.9865952,14.7453581 73.0965147,14.8129973 74.7013405,15.8050398 C74.7233244,15.8050398 74.7013405,15.8275862 74.7013405,15.8275862 C72.766756,15.1962865 72.7008043,15.1286472 72.4809651,13.7533156 C72.2171582,12.1525199 72.4589812,12.1074271 73.4922252,10.9575597 C73.536193,10.9124668 73.5581769,10.9124668 73.6461126,10.9350133 C73.7560322,10.9575597 73.7780161,10.9801061 73.9099196,11.0251989 C72.8986595,12.2427056 72.7008043,12.4681698 72.7887399,13.1671088 Z M75.8005362,11.9270557 C75.6246649,11.9270557 75.4927614,11.6339523 75.3608579,11.6339523 C75.2289544,11.6339523 75.2509383,11.8143236 74.9871314,11.6790451 C74.8552279,11.6114058 74.6353887,11.4310345 74.6134048,11.2281167 C74.9211796,11.3408488 75.8664879,11.6339523 76.1522788,11.7241379 C76.0643432,11.8594164 75.9544236,11.9270557 75.8005362,11.9270557 Z M76.2621984,13.0994695 C76.1742627,13.0994695 76.1742627,13.0318302 76.1742627,12.9190981 C76.1742627,12.6710875 76.3281501,12.1299735 76.5040214,11.8594164 C76.6798928,11.9270557 77.0756032,12.0623342 77.3394102,12.1525199 C77.0975871,12.4456233 76.5260054,13.0994695 76.2621984,13.0994695 Z M77.5372654,11.6564987 C76.5699732,11.4310345 74.7233244,10.8448276 74.569437,10.7997347 C74.6793566,10.4615385 75.0091153,10.3037135 75.3828418,10.3037135 C75.9104558,10.3037135 76.6359249,11.2055703 77.5152815,11.3183024 C77.6032172,11.3183024 77.6252011,11.3859416 77.6252011,11.4761273 C77.6252011,11.5888594 77.5812332,11.6790451 77.5372654,11.6564987 Z M78.1747989,11.7917772 C78.0648794,11.7917772 77.9989276,11.7241379 78.0428954,11.6790451 C78.2187668,11.2506631 78.3946381,11.1830239 78.6144772,11.0702918 C78.8343164,10.9350133 78.658445,10.5291777 78.9662198,10.4164456 C79.186059,10.3262599 79.2520107,10.1233422 79.2739946,9.96551724 C79.2959786,9.80769231 79.4718499,9.62732095 79.4938338,9.46949602 C79.7356568,9.64986737 79.8455764,9.96551724 79.8455764,9.96551724 C79.7796247,10.1007958 78.9882038,11.7917772 78.1747989,11.7917772 Z M77.5372654,10.2811671 C77.0975871,9.80769231 76.4600536,9.33421751 75.7345845,9.15384615 C76.1742627,8.6127321 77.4932976,9.35676393 78.2627346,10.2811671 C78.3946381,10.438992 78.3946381,10.5742706 78.3067024,10.6419098 C78.1088472,10.8899204 77.6691689,10.438992 77.5372654,10.2811671 Z M78.8563003,8.22944297 C78.4825737,7.86870027 77.9329759,7.57559682 77.4713137,7.48541114 C77.8670241,7.21485411 78.5045576,7.39522546 78.8563003,7.66578249 C78.7243968,7.84615385 78.7463807,8.09416446 78.8563003,8.22944297 Z M79.0321716,9.24403183 C79.0321716,9.37931034 78.8563003,9.4469496 78.7683646,9.35676393 C78.2627346,8.79310345 77.5152815,8.16180371 76.7678284,7.93633952 C77.3174263,7.37267905 79.0321716,8.43236074 79.0321716,9.24403183 Z M80.9887399,8.5 C80.9887399,8.79310345 80.6150134,9.26657825 80.5490617,9.26657825 C80.4831099,9.26657825 80.3292225,9.22148541 80.2412869,9.15384615 C80.2412869,8.00397878 79.3399464,8.45490716 79.3399464,7.93633952 C79.3399464,7.71087533 79.9335121,7.73342175 80.2852547,7.46286472 C80.5270777,7.59814324 80.9887399,8.20689655 80.9887399,8.5 Z M78.3067024,5.83952255 C78.7243968,5.65915119 79.7576408,6.44827586 80.0434316,6.94429708 C79.9774799,7.05702918 79.7356568,7.12466844 79.6257373,7.19230769 C79.2300268,6.76392573 78.7024129,6.3806366 78.3506702,6.40318302 C77.7131367,6.42572944 77.1635389,6.74137931 75.9764075,6.92175066 C74.7233244,7.12466844 73.4702413,8.09416446 72.5469169,8.09416446 C71.8434316,8.09416446 71.5136729,7.73342175 71.5136729,7.28249337 C71.5136729,6.67374005 71.9533512,6.53846154 72.524933,6.53846154 C73.1624665,6.53846154 73.7120643,6.89920424 74.3276139,6.89920424 C74.6134048,6.89920424 74.8552279,6.83156499 75.0310992,6.71883289 C76.7238606,6.69628647 77.7571046,6.08753316 78.3067024,5.83952255 Z M75.7126005,7.32758621 C74.9871314,8.22944297 73.4482574,9.15384615 72.5029491,9.15384615 C71.5136729,9.15384615 70.9420912,8.36472149 71.2058981,7.84615385 C71.4697051,8.27453581 71.997319,8.54509284 72.5029491,8.54509284 C73.6021448,8.52254642 74.7672922,7.50795756 75.7126005,7.32758621 Z M73.6461126,5.81697613 C73.6461126,5.36604775 73.9758713,5.16312997 74.3276139,5.16312997 C74.6793566,5.16312997 74.9431635,5.41114058 74.9431635,5.86206897 C74.9431635,6.17771883 74.6573727,6.44827586 74.3276139,6.44827586 C73.9319035,6.44827586 73.6461126,6.17771883 73.6461126,5.81697613 Z M77.7131367,5.50132626 C77.0096515,5.92970822 76.1522788,6.31299735 75.2509383,6.26790451 C75.2949062,6.20026525 75.3168901,5.99734748 75.3168901,5.9071618 C75.7785523,6.06498674 76.2621984,5.97480106 76.1962466,5.63660477 C75.5367292,5.86206897 75.2949062,4.84748011 74.30563,4.84748011 C73.2723861,4.84748011 72.5029491,5.68169761 71.6895442,5.16312997 C71.4477212,4.98275862 71.3597855,4.71220159 71.3597855,4.44164456 C71.3597855,3.9005305 71.7335121,3.51724138 72.2831099,3.51724138 C73.2064343,3.51724138 73.9099196,4.41909814 74.8991957,4.4867374 C75.3168901,4.50928382 75.5147453,4.53183024 75.8225201,4.62201592 C76.1302949,4.71220159 76.2841823,4.64456233 76.4820375,4.57692308 C76.877748,4.75729443 77.4273458,5.14058355 77.7131367,5.50132626 Z M75.6906166,3.69761273 C75.8884718,3.62997347 76.1962466,3.83289125 76.1962466,4.26127321 C76.0863271,4.35145889 75.7785523,4.19363395 75.4268097,4.17108753 C75.5587131,4.10344828 75.5806971,3.81034483 75.6906166,3.69761273 Z M70.8321716,1.87135279 C72.2171582,1.96153846 73.9538874,2.70557029 75.2069705,3.56233422 C75.0530831,3.96816976 75.0091153,4.08090186 74.7892761,4.08090186 C74.5474531,4.08090186 73.5142091,3.066313 72.2171582,3.066313 C71.4037534,3.066313 70.8101877,3.60742706 70.8101877,4.46419098 C70.8101877,4.98275862 71.1839142,5.83952255 72.3710456,5.83952255 C72.6348525,5.83952255 72.8986595,5.79442971 73.1404826,5.70424403 C73.0965147,5.86206897 73.1624665,6.11007958 73.2504021,6.22281167 C72.9865952,6.20026525 72.5908847,6.11007958 72.3270777,6.11007958 C71.4477212,6.11007958 71.0080429,6.62864721 71.0080429,7.35013263 C70.8101877,7.62068966 70.7002681,7.89124668 70.7002681,8.20689655 C70.7002681,9.06366048 71.5796247,9.58222812 72.4589812,9.58222812 C73.9538874,9.58222812 75.4487936,8.29708223 76.2841823,7.23740053 C76.9656836,7.10212202 77.889008,6.76392573 78.2627346,6.76392573 C78.5924933,6.76392573 78.8343164,6.92175066 79.3179625,7.35013263 C79.2520107,7.39522546 79.1420912,7.4403183 79.0761394,7.50795756 C78.7243968,7.23740053 78.2847185,7.10212202 77.910992,7.10212202 C77.5812332,7.10212202 77.2954424,7.23740053 77.0756032,7.4403183 C77.0536193,7.46286472 76.8997319,7.46286472 76.7018767,7.5530504 C76.3281501,7.73342175 76.2182306,7.95888594 76.0863271,8.18435013 C77.0975871,8.25198939 78.0428954,9.04111406 78.658445,9.76259947 C78.7243968,9.83023873 78.7683646,9.96551724 78.7024129,10.0782493 C78.658445,10.1458886 78.5924933,10.1233422 78.416622,9.98806366 C76.7678284,8.29708223 75.5367292,8.3872679 75.1849866,9.4469496 C76.2841823,9.64986737 77.0316354,10.2135279 77.7351206,11.0477454 C77.7351206,11.0702918 77.6691689,11.0928382 77.6032172,11.0928382 C76.7898123,10.9801061 76.1742627,9.94297082 75.2729223,9.94297082 C74.7453083,9.94297082 74.2836461,10.2135279 74.1297587,10.7095491 C73.9758713,10.6644562 73.7560322,10.596817 73.6021448,10.5742706 C73.4262735,10.5291777 73.3603217,10.5742706 73.2504021,10.6644562 C71.9093834,11.9045093 71.7335121,12.2427056 71.9753351,13.8435013 C72.2391421,15.6246684 72.4589812,15.7599469 75.2289544,16.4814324 C75.2509383,16.9774536 75.1190349,17.3381963 74.2836461,17.3381963 C73.6241287,17.3381963 73.0525469,16.9774536 72.524933,16.9774536 C72.1292225,16.9774536 71.6455764,17.2029178 71.3597855,17 C71.0300268,16.729443 68.9635389,14.4297082 68.9635389,10.596817 C68.9635389,7.03448276 70.8981233,5.41114058 70.8321716,1.87135279 Z M60.6316354,4.75729443 C62.6101877,2.99867374 65.6659517,1.17241379 68.0402145,1.17241379 C69.7329759,1.17241379 70.0187668,1.5331565 70.3045576,1.80371353 C70.3265416,2.43501326 70.2605898,2.99867374 70.1726542,3.5397878 C69.5351206,3.72015915 68.7656836,4.08090186 69.1613941,4.77984085 C69.1613941,4.77984085 69.0075067,4.84748011 68.8756032,4.9602122 C68.7876676,5.02785146 68.6557641,5.20822281 68.6557641,5.20822281 C68.3699732,5.18567639 67.8643432,5.16312997 67.5126005,4.66710875 C67.2048257,4.23872679 66.9410188,3.96816976 66.633244,3.74270557 C67.4906166,3.13395225 68.2820375,3.02122016 69.2053619,3.51724138 C69.2713137,3.49469496 69.3372654,3.44960212 69.447185,3.4270557 C69.3152815,2.97612732 68.6337802,2.54774536 67.9302949,2.54774536 C66.7651475,2.54774536 65.9957105,3.62997347 65.2702413,3.87798408 C65.2262735,3.94562334 65.2262735,3.99071618 65.2262735,4.0132626 C65.4241287,4.12599469 65.4900804,4.32891247 65.6,4.50928382 C65.9297587,5.20822281 66.5672922,6.06498674 67.402681,6.17771883 C67.2927614,6.40318302 67.2487936,6.83156499 67.2268097,7.03448276 C66.633244,7.37267905 65.5560322,8.54509284 65.0284182,8.81564987 C65.1603217,8.11671088 65.2042895,7.5530504 65.2042895,7.5530504 C65.2042895,7.5530504 64.3469169,8.18435013 64.0171582,8.31962865 C63.9731903,8.34217507 63.9292225,8.29708223 63.9292225,8.22944297 C63.9731903,7.95888594 64.1490617,6.83156499 64.1490617,6.83156499 C64.1490617,6.83156499 63.4016086,7.53050398 62.8520107,7.73342175 C62.7640751,7.75596817 62.6981233,7.68832891 62.6981233,7.64323607 C62.6541555,7.21485411 63.0938338,5.63660477 63.0938338,5.63660477 C63.0938338,5.63660477 61.9067024,6.33554377 61.6648794,6.47082228 C61.5769437,6.51591512 61.5329759,6.47082228 61.5549598,6.42572944 C61.5769437,6.0198939 61.7967828,4.89257294 61.7967828,4.89257294 C61.7967828,4.89257294 60.8734584,4.84748011 60.6096515,4.82493369 L60.6096515,4.75729443 L60.6316354,4.75729443 Z M60.4117962,5.47877984 C60.5217158,5.29840849 60.8075067,5.25331565 61.2911528,5.27586207 C61.1592493,5.72679045 61.0493298,6.26790451 61.0053619,6.78647215 C60.7855228,7.01193634 60.2359249,7.39522546 59.8841823,7.4403183 C59.972118,6.69628647 60.213941,5.88461538 60.4117962,5.47877984 Z M58.4772118,6.69628647 C58.8949062,6.24535809 59.3565684,5.72679045 59.8402145,5.34350133 L59.8621984,5.34350133 C59.5983914,5.74933687 59.3785523,7.25994695 59.3785523,7.25994695 C59.3126005,7.62068966 59.0487936,7.9137931 58.169437,8.34217507 C58.3892761,8.00397878 58.3892761,7.37267905 58.4772118,6.69628647 Z M59.2466488,8.25198939 C59.1806971,8.63527851 59.0268097,9.15384615 58.9608579,9.37931034 C58.7630027,10.0782493 58.7190349,10.1909814 57.90563,10.5517241 C57.2680965,10.8448276 57.1142091,10.6644562 57.1142091,10.6644562 C57.4879357,10.3037135 57.7957105,9.42440318 57.9495979,8.90583554 C58.4552279,8.72546419 58.8069705,8.59018568 59.2466488,8.25198939 Z M57.7517426,7.28249337 L57.7957105,7.32758621 C57.7737265,7.71087533 57.7517426,8.11671088 57.5538874,8.3872679 C57.1142091,8.54509284 56.4107239,8.77055703 56.1029491,8.81564987 C56.4766756,8.54509284 57.3560322,7.73342175 57.7517426,7.28249337 Z M55.9050938,9.35676393 C56.2788204,9.26657825 56.89437,9.13129973 57.2900804,8.95092838 C57.3560322,8.92838196 57.3780161,8.99602122 57.3560322,9.06366048 C57.3340483,9.13129973 57.2021448,9.62732095 57.0702413,9.9204244 C56.8723861,10.3938992 56.4107239,10.6870027 55.3774799,11.0251989 C55.3115282,11.0702918 55.2455764,11.0251989 55.2455764,10.9575597 C55.3774799,10.3713528 55.5533512,9.78514589 55.9050938,9.35676393 Z M53.6627346,10.9575597 C54.058445,10.6419098 54.7619303,10.0782493 55.2235925,9.5596817 C55.0037534,9.96551724 54.7399464,10.9124668 54.7179625,11.2732095 C54.5201072,11.5888594 53.5967828,12.0172414 53.4209115,12.0172414 C53.552815,11.7015915 53.6407507,11.3183024 53.6627346,10.9575597 Z M53.0911528,11.3633952 C53.0911528,11.566313 53.0252011,11.7917772 52.8713137,11.994695 L52.3656836,11.9721485 C52.5855228,11.8143236 52.9152815,11.5888594 53.0911528,11.3633952 Z M51.5302949,12.693634 C51.7941019,12.4456233 52.0579088,12.3779841 52.519571,12.4907162 C52.519571,12.4907162 52.1458445,12.9867374 52.0359249,13.4602122 C51.9040214,13.5278515 51.772118,13.5954907 51.6402145,13.66313 C51.4643432,13.7082228 51.3104558,13.7307692 51.2005362,13.6856764 C51.4203753,13.4827586 51.4863271,13.0994695 51.5302949,12.693634 Z M49.1780161,13.933687 C49.7935657,13.6180371 50.5190349,13.234748 50.8927614,12.964191 C50.8048257,13.4376658 50.5849866,13.9562334 50.3211796,14.1366048 C50.1233244,14.2493369 49.5957105,14.5649867 49.0680965,14.632626 C49.1340483,14.4297082 49.1780161,14.2267905 49.1780161,13.933687 Z M14.5753351,18.668435 C7.34262735,16.6167109 0.813404826,11.0251989 0.813404826,5.68169761 C0.813404826,2.75066313 2.41823056,0.698938992 5.14423592,0.698938992 C8.2,0.698938992 8.79356568,2.68302387 9.05737265,4.21618037 C9.16729223,4.66710875 9.32117962,5.00530504 9.76085791,5.433687 C10.2005362,5.86206897 9.60697051,7.57559682 9.21126005,7.57559682 C8.99142091,7.57559682 8.85951743,6.98938992 8.55174263,6.69628647 C8.13404826,6.29045093 8.06809651,5.86206897 8.06809651,5.47877984 C8.06809651,5.09549072 8.17801609,4.87002653 8.17801609,4.5994695 C8.17801609,2.50265252 6.94691689,1.48806366 5.14423592,1.48806366 C3.2536193,1.48806366 1.75871314,2.72811671 1.75871314,5.68169761 C1.75871314,11.3183024 11.0359249,16.5265252 15.2128686,16.5265252 C17.8289544,16.5265252 19.4997319,14.2267905 24.6,14.2267905 C27.5018767,14.2267905 31.7447721,15.3541114 37.9882038,15.3541114 C44.9790885,15.3541114 46.4959786,14.9933687 48.6504021,14.1591512 C48.6504021,14.3846154 48.5844504,14.6551724 48.4965147,14.9257294 C48.4745308,14.9933687 48.4745308,15.0384615 48.5624665,15.0384615 C49.0680965,15.0835544 49.7276139,15.0159151 50.1453083,14.7679045 C49.9914209,15.0384615 49.8595174,15.2188329 49.7935657,15.4668435 C49.7715818,15.5344828 49.7715818,15.5570292 49.8595174,15.5570292 C49.969437,15.5570292 50.0573727,15.5344828 50.1672922,15.5119363 C49.9914209,15.9628647 49.9254692,16.4137931 49.9254692,16.8872679 L49.9254692,16.9098143 C49.9254692,17.8567639 50.3871314,19.4575597 51.6621984,20.765252 C52.0798928,21.193634 52.5635389,21.5543767 53.1131367,21.8925729 C52.541555,22.1405836 51.9699732,22.4787798 51.6841823,22.8846154 C51.6621984,22.9297082 51.6621984,22.9522546 51.6841823,22.9748011 C51.8600536,23.0875332 52.0579088,23.3129973 52.1898123,23.4482759 C52.013941,23.561008 51.7281501,23.8766578 51.5742627,24.1246684 C50.9147453,24.3050398 49.9254692,24.801061 49.6616622,25.0039788 C49.4198391,25.1843501 49.3978552,25.3647215 49.5077748,25.5676393 C48.9142091,25.8381963 47.9908847,26.1763926 47.7930295,26.7400531 C47.5292225,26.897878 47.0016086,27.1007958 46.6718499,27.3037135 C46.1442359,26.9880637 44.9790885,26.9204244 44.319571,27.1007958 C43.7699732,26.5371353 41.5495979,25.6578249 40.4284182,25.5901857 C39.6589812,24.8461538 38.6477212,24.6657825 38.4938338,24.6432361 C38.2080429,24.6206897 38.0981233,24.7108753 38.2520107,25.0265252 C37.8123324,24.8912467 37.3067024,24.8461538 36.889008,24.8687003 C36.8230563,24.8687003 36.7790885,24.9137931 36.8230563,25.0265252 C36.889008,25.2970822 37.1088472,25.6578249 37.2407507,25.7931034 C36.9989276,25.7931034 36.7351206,25.8381963 36.6032172,25.8832891 C36.5152815,25.928382 36.5152815,25.9734748 36.5812332,26.0636605 C36.889008,26.5596817 37.4825737,27.168435 37.9002681,27.5066313 C37.7463807,27.5517241 37.7024129,27.6193634 37.7463807,27.6870027 C38.1420912,28.4535809 39.5270777,29.2427056 40.3184987,29.535809 C40.49437,30.1671088 42.0991957,31.0689655 43.2203753,31.0915119 C43.6820375,31.5649867 44.6932976,31.7453581 45.5067024,31.5424403 C46.5399464,32.0384615 47.8589812,31.8355438 49.0680965,30.9787798 L49.1340483,31.0238727 C49.8595174,31.4748011 51.3764075,31.5198939 51.8160858,31.3395225 C52.4096515,31.5424403 53.4648794,31.632626 54.2782842,31.4973475 C54.2782842,31.4973475 54.3882038,31.6100796 54.6739946,31.6551724 C54.9597855,31.7002653 55.0257373,31.7228117 55.5313673,31.7453581 C55.5533512,31.7453581 55.5533512,31.7679045 55.5533512,31.7904509 C53.5747989,31.903183 51.2884718,31.7904509 50.8927614,31.8129973 C48.3865952,31.9708223 48.5404826,32.9177719 42.7587131,32.9177719 C38.6697051,32.9177719 35.2402145,31.7904509 34.3828418,31.3169761 C34.3828418,31.3169761 34.0091153,30.7307692 34.0091153,29.9867374 C34.0091153,29.0172414 34.4927614,28.6790451 35.0203753,28.6790451 C35.3061662,28.6790451 35.5040214,28.6790451 35.5040214,28.5437666 C35.5040214,28.4535809 35.3941019,28.295756 34.8225201,28.295756 C34.2069705,28.295756 33.2176944,28.83687 33.2176944,30.1445623 C33.2176944,31.3169761 33.7453083,32.2413793 33.8112601,32.5795756 C33.8772118,32.9177719 33.8991957,33.1657825 33.8112601,33.4363395 C33.1957105,32.4893899 32.3823056,31.8355438 31.4369973,31.8355438 C30.1399464,31.8355438 29.2825737,32.6923077 29.2825737,33.9323607 C29.2825737,35.2625995 29.8321716,36.1193634 30.6895442,36.8408488 C31.2831099,37.33687 32.1844504,38.0583554 32.1844504,38.0583554 C32.4482574,38.2612732 32.6461126,38.6671088 32.6900804,38.9376658 C33.0857909,41.3952255 33.7672922,43.4018568 35.5699732,45.5212202 C35.8337802,45.2055703 36.3174263,44.9350133 36.910992,44.9350133 C38.0761394,44.9350133 38.6697051,45.8819629 38.7796247,46.4456233 C38.7796247,46.4456233 39.2632708,46.4230769 39.5270777,46.8289125 C39.461126,47.0092838 39.3731903,47.1445623 39.2193029,47.2798408 C38.9774799,46.9867374 38.7576408,46.8514589 38.449866,46.7612732 C38.5158177,46.2427056 37.5705094,45.4535809 37.2407507,45.4535809 C37.152815,45.4535809 37.0428954,45.4986737 36.9769437,45.566313 C37.2187668,45.6564987 38.0541555,46.2427056 38.0541555,46.7161804 C38.0541555,47.234748 38.6037534,47.0994695 38.8016086,47.5729443 C38.6477212,47.7082228 38.427882,47.8660477 38.2300268,47.9562334 C38.3619303,48.2267905 38.4938338,48.7904509 38.4938338,49.331565 L38.3399464,49.3541114 L34.1190349,49.3541114 C33.0418231,48.7679045 29.0407507,42.7480106 28.4252011,42.0265252 C28.6230563,41.9137931 29.1286863,41.7108753 29.1286863,40.9668435 C29.1286863,40.4482759 28.4252011,39.5013263 27.941555,39.5013263 C27.7436997,39.5013263 27.5018767,39.6366048 27.413941,39.7493369 C27.3040214,39.2533156 27.3919571,38.6896552 27.3699732,38.1485411 C27.3040214,36.1870027 26.4246649,35.0145889 25.1935657,34.1578249 C25.5672922,33.8647215 25.875067,33.4363395 25.875067,32.8050398 C25.875067,31.7002653 24.5560322,30.6405836 23.4128686,29.6034483 C21.5662198,27.8899204 20.5329759,25.1167109 20.2032172,22.6140584 C19.8294906,19.7055703 18.6423592,18.7811671 16.7957105,18.7811671 C16.3120643,18.7360743 15.4327078,18.8713528 14.5753351,18.668435 Z M11.2557641,48.7904509 C11.2557641,48.6100796 11.3876676,48.4748011 11.6075067,48.4748011 C11.8493298,48.4748011 12.0032172,48.5875332 12.0032172,48.7904509 C12.0032172,49.0159151 11.8713137,49.0384615 11.6075067,49.0384615 C11.2997319,49.061008 11.2557641,48.9257294 11.2557641,48.7904509 Z M12.552815,48.7679045 C12.552815,48.7679045 12.552815,48.5424403 12.3769437,48.3169761 C12.310992,48.2267905 12.2010724,48.1591512 12.0911528,48.1140584 C12.1571046,47.9562334 12.3549598,47.7533156 12.5747989,47.7533156 C12.7286863,47.7533156 12.7726542,47.8885942 12.7726542,48.0689655 C12.7946381,48.3395225 12.7067024,48.5649867 12.552815,48.7679045 Z M13.2123324,48.2718833 C13.2123324,48.2718833 13.2782842,48.3846154 13.3002681,48.5198939 C13.3662198,48.7453581 13.3442359,49.0159151 13.1903485,49.1737401 L12.7067024,49.1737401 C12.9045576,48.9933687 13.1024129,48.6551724 13.2123324,48.2718833 Z M13.5201072,47.8660477 C13.6739946,47.7082228 14.2235925,47.4602122 14.2235925,47.9562334 C14.2235925,48.3846154 13.8718499,48.8806366 13.8718499,48.8806366 C13.827882,48.4297082 13.5201072,47.8660477 13.5201072,47.8660477 Z M14.6852547,49.3090186 C14.8831099,48.8129973 15.0809651,48.3169761 15.0809651,47.6180371 C15.0809651,46.8965517 14.5533512,46.0623342 13.7179625,45.83687 L13.5420912,45.7692308 C13.1024129,44.7095491 12.4209115,44.1909814 11.2997319,43.8076923 C11.1458445,43.7400531 11.1238606,43.6047745 11.1458445,43.469496 C11.1898123,42.9509284 11.3656836,42.4098143 11.4975871,42.0490716 C11.8273458,41.2148541 12.2670241,40.5384615 12.8386059,39.8395225 C13.058445,39.5464191 13.3882038,39.5238727 13.586059,39.5013263 C14.3115282,39.3885942 15.7404826,39.0278515 16.6857909,38.4416446 C17.3013405,38.0583554 18.0487936,37.33687 18.3126005,36.9986737 C19.0820375,36.0742706 20.9506702,36.5928382 23.6107239,34.7440318 C24.6,35.1047745 25.8970509,36.2095491 26.0509383,37.6299735 C26.1608579,38.6220159 26.0509383,40.0198939 26.4466488,41.0570292 C26.6005362,41.5755968 27.3260054,42.4098143 27.6117962,42.7480106 C27.8756032,43.0862069 30.3378016,46.3779841 32.1184987,48.9708223 C32.1624665,49.0384615 32.2723861,49.1962865 32.4042895,49.331565 L14.6852547,49.331565 L14.6852547,49.3090186 Z M13.4321716,38.2387268 C13.9158177,34.8793103 15.0589812,33.2334218 16.5758713,33.2334218 C17.8949062,33.2334218 18.202681,34.1803714 18.202681,35.0145889 C18.202681,36.8408488 15.3887399,38.5543767 13.7619303,38.5543767 C13.5640751,38.5318302 13.4321716,38.4416446 13.4321716,38.2387268 Z M19.5876676,31.0238727 C16.9276139,28.0477454 15.6745308,24.4854111 15.6745308,21.7798408 C16.0482574,21.2612732 16.1581769,20.3819629 16.1581769,19.9535809 C16.1581769,19.6153846 16.5538874,19.4124668 16.9495979,19.4124668 C17.7190349,19.4124668 19.0600536,20.1114058 19.3018767,22.0729443 C19.7855228,26.3116711 20.9726542,28.2506631 23.1490617,30.2122016 C24.336193,31.2718833 25.0836461,31.9708223 25.0836461,32.5795756 C25.0836461,33.1883289 24.7538874,33.7519894 23.9184987,33.7519894 C22.2257373,33.729443 20.4010724,31.9482759 19.5876676,31.0238727 Z M27.3260054,40.3806366 C27.3260054,40.1777188 27.6117962,39.9071618 27.8096515,39.9071618 C28.0514745,39.9071618 28.4911528,40.6061008 28.4911528,40.831565 C28.4911528,41.0795756 28.1613941,41.3952255 27.9635389,41.3952255 C27.7876676,41.3952255 27.3260054,40.7188329 27.3260054,40.3806366 Z M6.22144772,46.6485411 C6.22144772,44.3488064 6.68310992,42.229443 6.68310992,41.0119363 C6.68310992,38.9827586 6.94691689,37.5623342 7.18873995,36.8633952 C7.78230563,35.2400531 9.67292225,34.9469496 11.1238606,34.0676393 C13.058445,32.8952255 13.6739946,30.66313 13.6739946,27.6870027 C13.6739946,24.3275862 14.1356568,23.561008 14.861126,22.5915119 C14.9050938,22.5238727 14.9270777,22.5013263 14.9710456,22.5013263 C15.0150134,22.5013263 15.0369973,22.5464191 15.0589812,22.6591512 C15.3447721,25.229443 16.1801609,27.867374 18.4884718,30.7533156 C19.9394102,32.5570292 21.8739946,33.8872679 22.6214477,34.2029178 C22.6873995,34.2254642 22.7093834,34.2931034 22.6654155,34.3381963 C21.2364611,35.2851459 19.5656836,35.397878 18.8182306,35.7360743 C18.8621984,35.6007958 18.950134,35.2400531 18.950134,34.7665782 C18.950134,33.4814324 18.0048257,32.5570292 16.7077748,32.5570292 C15.2788204,32.5570292 13.4981233,33.571618 13.0144772,37.5848806 C12.9485255,38.1485411 12.7946381,38.3965517 12.4209115,38.9827586 C12.1131367,39.4787798 11.1238606,41.0795756 10.8820375,41.7559682 C10.6621984,42.3421751 10.4643432,43.0636605 10.4643432,43.6724138 C10.4643432,44.2811671 10.9040214,44.5291777 11.4096515,44.7320955 C11.9812332,44.9575597 12.7286863,45.4535809 12.9924933,46.0848806 C13.1243968,46.4230769 13.4321716,46.4681698 13.7399464,46.6034483 C14.0697051,46.7387268 14.2455764,47.0543767 14.2895442,47.2798408 C13.8718499,47.3023873 13.586059,47.3474801 13.2563003,47.5729443 C13.2123324,47.505305 13.1463807,47.4602122 13.1024129,47.4376658 C13.1024129,46.8514589 12.6627346,46.4681698 12.4209115,46.3554377 C12.1571046,45.4535809 10.8600536,45.3633952 10.3104558,44.7546419 C10.244504,44.7546419 10.2005362,44.8222812 10.2005362,44.867374 C10.5742627,45.6790451 11.6294906,45.4535809 12.047185,46.6259947 C12.0911528,46.7161804 12.6407507,46.8965517 12.6627346,47.4151194 C12.310992,47.4376658 11.9592493,47.7082228 11.783378,48.0689655 C11.541555,48.0689655 11.2337802,48.1366048 11.013941,48.3846154 C10.8600536,48.2944297 10.6841823,48.0238727 10.4863271,47.7307692 C9.78284182,46.6034483 8.26595174,46.964191 7.76032172,46.3779841 C7.32064343,45.8819629 7.36461126,44.7997347 7.36461126,44.3262599 C7.36461126,44.168435 7.38659517,44.0106101 7.38659517,44.0106101 C7.2766756,44.0106101 7.18873995,44.0331565 7.14477212,44.3488064 C7.07882038,45.0477454 7.07882038,46.4681698 7.54048257,46.9190981 C8.11206434,47.4827586 9.47506702,47.1671088 9.87077748,48.1366048 C10.002681,48.4297082 10.1345845,48.9933687 10.4863271,49.3541114 L7.29865952,49.3541114 C6.44128686,48.8129973 6.22144772,47.5954907 6.22144772,46.6485411 Z" id="Shape"></path>
                <path d="M25.8077436,28 C26.4231017,28 27,27.5228916 27,26.546988 C27,25.2240964 25.9808131,24.9421687 25.9808131,23.8144578 C25.9808131,22.5566265 26.7884706,21.6457831 26.7884706,20.5180723 C26.7884706,19.5638554 26.2500323,19 25.365455,19 C24.1924285,19 23.0001721,20.3662651 23.0001721,22.5566265 C22.9809422,25.8746988 24.5770273,28 25.8077436,28 M25.3077651,19.4771084 C26.0769628,19.4771084 26.2692622,19.9542169 26.2692622,20.6481928 C26.2692622,21.5807229 25.5192945,22.4481928 25.5192945,23.8144578 C25.5192945,24.9855422 26.5192515,25.5493976 26.5192515,26.4385542 C26.5192515,26.9590361 26.4038718,27.3927711 25.7115939,27.3927711 C24.9423962,27.3927711 23.5963003,25.3975904 23.5963003,22.5566265 C23.6155303,20.6048193 24.5577974,19.4771084 25.3077651,19.4771084" id="Shape"></path>
                <path d="M6.64903942,38.9251925 C6.67400248,38.540154 6.94859608,37.6050605 6.99852219,37.1375138 C7.02348524,37 6.72392859,37 6.72392859,37 C6.72392859,37 6.14977833,38.210121 6.14977833,39.5027503 C6.14977833,40.4378438 6.19970444,40.850385 6.17474138,41.2079208 C6.17474138,41.950495 6,42.8305831 6,42.9405941 C6,43.0231023 6.14977833,42.9955996 6.14977833,42.9955996 C6.14977833,42.9955996 6.52422415,41.4829483 6.57415026,40.9328933 C6.64903942,40.30033 6.57415026,39.750275 6.64903942,38.9251925" id="Shape"></path>
                <path d="M9.01963618,43.68 C9.03927236,43.92 9.29454273,44 9.29454273,44 C9.29454273,44 9.25527037,42.7733333 9.53017692,41.4133333 C9.9818091,39.12 10.1388986,38 9.86399201,38 C9.7658111,38 9.74617492,38.0533333 9.72653874,38.3466667 C9.64799401,39.4666667 9.19636182,40.5866667 9.07854473,41.4933333 C9,42.08 8.98036382,43.12 9.01963618,43.68" id="Shape"></path>
                <path d="M9.87821638,39.0191362 C9.74157401,40.2910846 9.19500454,41.265343 9.02420157,42.5102287 C8.93880009,43.3762361 9.09252276,44.1339926 9.28040602,44.8917491 C9.29748631,45 9.38288779,45 9.41704839,45 C9.53661046,45 9.50244987,44.8376236 9.43412868,44.4858081 C9.3316469,43.8092398 9.28040602,43.0244206 9.43412868,42.374915 C9.67325283,41.3465312 9.92945727,40.3181474 9.99777845,39.1544499 C10.0148588,38.9650108 9.92945727,38.9920735 9.87821638,39.0191362" id="Shape"></path>
                <path d="M33.217736,43.8976744 C34.1364081,45.2 35.6587789,46 35.8687611,46 C35.9737522,46 36,45.9627907 36,45.9069767 C36,45.7395349 34.8188502,45.144186 34.0576647,44.1953488 C33.4802137,43.4511628 32.981506,42.5023256 32.7452761,42.3348837 C32.5090461,42.1674419 32.1415773,42 32.0628339,42 C31.9840906,42 31.9840906,42.055814 32.0365862,42.0930233 C32.5352939,42.5581395 32.7190283,43.172093 33.217736,43.8976744" id="Shape"></path>
                <path d="M69.11151,42 C69.0471297,42.0375587 68.9827493,42.0751174 69.0042095,42.1126761 C69.669473,43.0328638 69.6480129,43.5023474 69.6480129,44.5352113 C69.6480129,44.9859155 70.4205769,45.6807512 70.9570798,46 C71,45.9624413 71,45.943662 71,45.8873239 C70.6780983,45.5117371 70.1415955,44.9107981 70.1415955,44.57277 C70.1415955,43.4084507 69.9269943,42.7887324 69.11151,42" id="Shape"></path>
                <path d="M31.2346632,44.075911 C31.1368869,43.9637942 31,43.9862176 31,44.075911 C31,44.1656045 32.603532,46.4752111 32.9164163,46.8564084 C33.2293006,47.2376056 34.2852852,47.5739561 34.5003931,47.6860729 C34.7155011,47.7757663 34.930609,48 34.9697196,48 C35.0088301,48 35.0283854,47.7084962 34.9110538,47.6412261 C34.8328327,47.5739561 34.2852852,47.2376056 33.8550692,46.9685252 C33.3857428,46.6545981 31.2737738,44.1207577 31.2346632,44.075911" id="Shape"></path>
                <path d="M68.490566,44 C68.1886792,44 68,44.1612903 68,44.5 C68,44.7419355 68.245283,45 68.5471698,45 C68.8113208,45 69,44.8225806 69,44.5322581 C69,44.3064516 68.8113208,44 68.490566,44 M68.509434,44.7258065 C68.3962264,44.7258065 68.2641509,44.6290323 68.2641509,44.5 C68.2641509,44.4032258 68.3018868,44.2258065 68.490566,44.2258065 C68.6603774,44.2258065 68.754717,44.3709677 68.754717,44.483871 C68.7358491,44.6129032 68.6792453,44.7258065 68.509434,44.7258065" id="Shape"></path>
                <path d="M46.3,46.9007092 C46.3,45.7092199 46.4,45.4822695 46.6666667,45.0851064 C46.6333333,45.0283688 46.5833333,45 46.5333333,45 C46.2333333,45 46,45.6241135 46,47.0425532 C46,48.0638298 46.1166667,49 46.55,49 C46.7333333,49 46.9166667,48.9148936 47,48.8297872 C46.5,48.4893617 46.3,47.9503546 46.3,46.9007092" id="Shape"></path>
                <path d="M9.56982704,38.9020213 C10.0708936,39.1418578 10.7222802,38.9260049 10.9728135,38.4223483 C11.0229202,38.3024301 11.0730268,38.1825119 11.0730268,38.0625936 C11.5991467,38.0146263 12,37.5829207 12,37.0312968 C12,36.4556893 11.5490401,36 10.9728135,36 C10.4216402,36 9.97068031,36.4317056 9.94562699,36.9593459 C9.59488037,37.0073132 9.29424042,37.1991823 9.11886711,37.5349534 C8.84328049,38.03861 9.06876045,38.6621848 9.56982704,38.9020213 M11.0229202,36.4556893 C11.3235601,36.4556893 11.5490401,36.7195094 11.5490401,37.0312968 C11.5490401,37.3430842 11.3235601,37.6069043 11.0229202,37.6069043 C10.7222802,37.6069043 10.4968002,37.3430842 10.4968002,37.0312968 C10.4968002,36.6955258 10.7473335,36.4556893 11.0229202,36.4556893 M9.59488037,37.7987735 C9.67004036,37.6069043 9.82036034,37.4869861 9.99573364,37.4390188 C10.1210003,37.6788553 10.3214269,37.8707245 10.5719602,37.9426754 C10.5719602,38.0146263 10.5469069,38.0865773 10.5218536,38.1585282 C10.3965869,38.446332 10.095947,38.5902339 9.84541367,38.4942993 C9.59488037,38.4223483 9.46961373,38.1105609 9.59488037,37.7987735" id="Shape"></path>
                <path d="M10,44 C9.46153846,44 9,44.3076923 9,44.8923077 C9,45.4461538 9.46153846,46 10,46 C10.5641026,46 11,45.6 11,45.0461538 C11,44.4923077 10.5641026,44 10,44 M9.92307692,45.5384615 C9.64102564,45.5384615 9.38461538,45.2307692 9.38461538,44.9538462 C9.38461538,44.5846154 9.58974359,44.4615385 9.92307692,44.4615385 C10.2307692,44.4615385 10.4615385,44.7384615 10.4615385,45.0153846 C10.4871795,45.3230769 10.2307692,45.5384615 9.92307692,45.5384615" id="Shape"></path>
                <path d="M29.6785664,39.0725389 C29.4352542,39.2590674 29.2788392,39.5906736 29.2962186,39.9430052 C29.3135981,40.5233161 29.7133253,41 30.1825703,41 C30.6518153,41 31.0167837,40.4404145 30.9994042,39.8601036 C30.9820248,39.3419689 30.6865742,38.9689119 30.3216059,38.8860104 C30.5127798,38.6787565 30.6344359,38.3678756 30.6344359,38.015544 C30.6170564,37.4559585 30.2347086,37 29.7828431,37 C29.2614597,37 28.9833886,37.3937824 29.0007681,38.015544 C29.0007681,38.5129534 29.2962186,38.9481865 29.6785664,39.0725389 M30.6691948,39.9637306 C30.6691948,40.2953368 30.4258825,40.5440415 30.1478114,40.5440415 C29.8697403,40.5440415 29.6959459,40.2746114 29.6959459,39.9637306 C29.6959459,39.6528497 29.9392581,39.3834197 30.2173292,39.3834197 C30.4780209,39.3626943 30.6691948,39.6321244 30.6691948,39.9637306 M29.8349814,37.4766839 C30.1130525,37.4766839 30.3216059,37.746114 30.3216059,38.0569948 C30.3216059,38.3678756 30.0956731,38.6373057 29.8349814,38.6373057 C29.5569103,38.6373057 29.348357,38.3678756 29.348357,38.0569948 C29.348357,37.7046632 29.5395309,37.4766839 29.8349814,37.4766839" id="Shape"></path>
                <path d="M50,42.9586777 C50,42.9090909 50,42.8842975 50,42.8347107 C50.0243902,42.8347107 50.0487805,42.8347107 50.0731707,42.8347107 C50.5609756,42.8347107 51,42.4132231 51,41.9173554 C51,41.3966942 50.6585366,41 50.1463415,41 C49.6585366,41 49.2195122,41.3966942 49.2195122,41.9173554 C49.2195122,41.9421488 49.2195122,41.9669421 49.2195122,41.9669421 C49.1707317,41.9669421 49.1219512,41.9669421 49.0731707,41.9669421 C48.5121951,41.9669421 48,42.3636364 48,43.0082645 C48,43.5785124 48.4878049,44 49.0487805,44 C49.6097561,43.9752066 50,43.5289256 50,42.9586777 M49.0487805,43.5289256 C48.7560976,43.5289256 48.5121951,43.2809917 48.5121951,42.9834711 C48.5121951,42.6363636 48.7560976,42.4380165 49.0487805,42.4380165 C49.4146341,42.4380165 49.5609756,42.6859504 49.5609756,42.9834711 C49.5853659,43.2809917 49.3414634,43.5289256 49.0487805,43.5289256 M50.1463415,41.446281 C50.3902439,41.446281 50.5853659,41.6446281 50.5853659,41.9173554 C50.5853659,42.1652893 50.3902439,42.3884298 50.1463415,42.3884298 C49.8292683,42.3884298 49.7073171,42.1900826 49.7073171,41.9173554 C49.7073171,41.6446281 49.902439,41.446281 50.1463415,41.446281" id="Shape"></path>
                <path d="M74,6.5 C74,6.23333333 73.7666667,6 73.5,6 C73.2333333,6 73,6.23333333 73,6.5 C73,6.76666667 73.2333333,7 73.5,7 C73.7666667,7 74,6.76666667 74,6.5" id="Shape"></path>
                <polygon id="Shape" points="7.84615385 61.476298 7.84615385 54 6 54 6 63 15 63 15 61.476298"></polygon>
                <polygon id="Shape" points="47 55.5440181 47 54 36 54 36 63 47 63 47 61.476298 37.85625 61.476298 37.85625 59.221219 45.2354167 59.221219 45.2354167 57.6772009 37.85625 57.6772009 37.85625 55.5440181"></polygon>
                <path d="M73,63 C69.688172,63 67,60.9613734 67,58 C67,55.0386266 69.688172,53 73,53 C76.311828,53 79,55.0386266 79,58 C78.9784946,60.9613734 76.2903226,63 73,63 M73,54.6738197 C70.8064516,54.6738197 68.9354839,55.9613734 68.9354839,58 C68.9354839,60.0386266 70.8064516,61.3261803 73,61.3261803 C75.2150538,61.3261803 77.0645161,60.0386266 77.0645161,58 C77.0645161,55.9613734 75.1935484,54.6738197 73,54.6738197" id="Shape"></path>
            </g>
        </g>
    </g>
</svg>